<?xml version="1.0" standalone="no"?><!DOCTYPE svg PUBLIC "-//W3C//DTD SVG 1.1//EN" "http://www.w3.org/Graphics/SVG/1.1/DTD/svg11.dtd"><svg t="1602755999904" class="icon" viewBox="0 0 1024 1024" version="1.1" xmlns="http://www.w3.org/2000/svg" p-id="2083" xmlns:xlink="http://www.w3.org/1999/xlink" width="200" height="200"><defs><style type="text/css"></style></defs><path d="M512 1023.463275a42.516009 42.516009 0 0 1-13.426108-82.794333 517.864172 517.864172 0 0 0 265.964809-197.555592 435.709177 435.709177 0 0 0 84.39268-248.702671l2.877023-279.071248A721.17381 721.17381 0 0 1 485.787122 77.242318 42.516009 42.516009 0 0 1 538.532547 10.431447 570.289928 570.289928 0 0 0 639.867697 70.209595 613.125607 613.125607 0 0 0 895.603091 128.389397a42.835678 42.835678 0 0 1 31.966924 12.467101 41.237332 41.237332 0 0 1 12.147431 31.966924l-3.516362 319.669242a520.741196 520.741196 0 0 1-99.417134 298.571072 600.658506 600.658506 0 0 1-308.800488 229.522516 39.319317 39.319317 0 0 1-15.983462 2.877023z m0 0" fill="#4163EF" p-id="2084"></path><path d="M512 1023.463275a37.720971 37.720971 0 0 1-13.106439-2.237684 601.617514 601.617514 0 0 1-309.120157-231.120862 520.741196 520.741196 0 0 1-99.417135-298.571073l-3.516361-319.669242A41.876671 41.876671 0 0 1 128.396909 128.389397a611.84693 611.84693 0 0 0 255.735394-58.179802A566.773566 566.773566 0 0 0 485.787122 10.431447a42.516009 42.516009 0 1 1 52.425756 66.810871A721.17381 721.17381 0 0 1 172.191596 212.462408l2.877023 279.071248a435.709177 435.709177 0 0 0 84.39268 249.981348 520.741196 520.741196 0 0 0 265.964809 197.555591A42.516009 42.516009 0 0 1 512 1023.463275z m0 0" fill="#4163EF" p-id="2085"></path><path d="M485.467453 681.736855a42.516009 42.516009 0 0 1-25.573539-8.631069l-170.064037-127.867697a42.516009 42.516009 0 0 1 51.147078-68.089549L480.033076 581.360713l228.243839-267.563155a42.516009 42.516009 0 0 1 63.933848 55.302778l-255.735394 297.612065a42.19634 42.19634 0 0 1-31.966924 15.024454z m0 0" fill="#4163EF" p-id="2086"></path></svg>