<svg id="图层_1" data-name="图层 1" xmlns="http://www.w3.org/2000/svg" xmlns:xlink="http://www.w3.org/1999/xlink" viewBox="0 0 675.84 819.2"><defs><style>.cls-1{fill:none;}.cls-2{clip-path:url(#clip-path);}.cls-3{fill:#2969e3;}</style><clipPath id="clip-path" transform="translate(-82.88 -63.52)"><rect class="cls-1" x="83" y="63" width="675.84" height="820.72"/></clipPath></defs><title>password(1)</title><g class="cls-2"><path class="cls-3" d="M123.84,432V821.45a20.48,20.48,0,0,0,20.51,20.31h552.9a20.28,20.28,0,0,0,20.51-20.29V432a20.47,20.47,0,0,0-20.51-20.29H144.35A20.28,20.28,0,0,0,123.84,432Zm-41,0a61.25,61.25,0,0,1,61.47-61.25h552.9A61.44,61.44,0,0,1,758.72,432V821.45a61.23,61.23,0,0,1-61.47,61.27H144.35a61.43,61.43,0,0,1-61.47-61.25Zm0,0" transform="translate(-82.88 -63.52)"/></g><path class="cls-3" d="M246.72,237.6A133.26,133.26,0,0,1,379.86,104.48h71.66A133.16,133.16,0,0,1,584.66,237.6v73.22s5.66,14,21.77,14,19.19-14,19.19-14V237.6c0-96.13-78-174.08-174.12-174.08H379.84c-96.14,0-174.08,78.13-174.08,174.08V391.2l41-7.85Zm0,0A133.26,133.26,0,0,1,379.86,104.48h71.66A133.16,133.16,0,0,1,584.66,237.6v73.22h41V237.6c0-96.13-78-174.08-174.12-174.08H379.84c-96.14,0-174.08,78.13-174.08,174.08V391.2l41-7.85ZM411.28,525v192.9a20.48,20.48,0,1,0,41,0V525a20.48,20.48,0,1,0-41,0Zm0,0" transform="translate(-82.88 -63.52)"/></svg>