<?xml version="1.0" standalone="no"?><!DOCTYPE svg PUBLIC "-//W3C//DTD SVG 1.1//EN" "http://www.w3.org/Graphics/SVG/1.1/DTD/svg11.dtd"><svg t="1600941018708" class="icon" viewBox="0 0 1025 1024" version="1.1" xmlns="http://www.w3.org/2000/svg" p-id="4200" xmlns:xlink="http://www.w3.org/1999/xlink" width="200.1953125" height="200"><defs><style type="text/css"></style></defs><path d="M142.790211 650.276303c-7.551521 37.914931 15.732336 127.274602 159.840538 127.274602 89.359671 0 173.055701-53.175297 243.379244-142.534968-98.956396-47.197009-180.764545-70.323544-273.899977-70.323544-80.077592 0-121.768284 47.511656-129.319805 85.58391z" p-id="4201" fill="#3eb3ff"></path><path d="M994.538904 682.999563a511.930227 511.930227 0 1 0-66.233136 126.959955c-88.101084-37.914931-227.017615-98.484426-298.914392-133.095566C541.919586 779.438785 452.559915 842.210807 315.845911 842.210807S87.56971 758.514778 98.896992 655.939944c7.708845-66.547783 55.220501-176.831461 256.75173-155.907454 106.507918 9.439402 155.907454 28.475529 241.491364 56.951058a597.828784 597.828784 0 0 0 55.220501-133.095566H268.648902v-38.072254h189.731977v-68.435663H226.328917v-41.848015h232.051962v-96.911193a18.092187 18.092187 0 0 1 19.036127-15.732336h94.394019v112.171559H819.280677v41.848014H572.440318v66.547783H772.083667a746.34204 746.34204 0 0 1-81.808149 203.576434c50.343477 17.462893 239.131514 75.987185 304.263386 95.967252z" p-id="4202" fill="#3eb3ff"></path></svg>