<svg id="图层_1" data-name="图层 1" xmlns="http://www.w3.org/2000/svg" xmlns:xlink="http://www.w3.org/1999/xlink" viewBox="0 0 819.2 819.2"><defs><style>.cls-1{fill:none;}.cls-2{clip-path:url(#clip-path);}.cls-3{fill:#2969e3;}</style><clipPath id="clip-path" transform="translate(-10.88 111.2)"><rect class="cls-1" x="11" y="-111.72" width="819.84" height="820.72"/></clipPath></defs><title>dh-01</title><g class="cls-2"><path class="cls-3" d="M420.48-111.2c226.22,0,409.6,183.38,409.6,409.6S646.7,708,420.48,708,10.88,524.61,10.88,298.4s183.38-409.6,409.6-409.6ZM348.39,417.18l-86.83-87a41,41,0,1,0-57.94,57.91L319.49,504a41,41,0,0,0,57.93,0L667,214.35a41,41,0,1,0-57.87-57.94L348.39,417.08Zm0,0" transform="translate(-10.88 111.2)"/></g></svg>