<?xml version="1.0" standalone="no"?><!DOCTYPE svg PUBLIC "-//W3C//DTD SVG 1.1//EN" "http://www.w3.org/Graphics/SVG/1.1/DTD/svg11.dtd"><svg t="1601188788479" class="icon" viewBox="0 0 1024 1024" version="1.1" xmlns="http://www.w3.org/2000/svg" p-id="3380" xmlns:xlink="http://www.w3.org/1999/xlink" width="200" height="200"><defs><style type="text/css"></style></defs><path d="M376.468182 998.323718C105.60405 925.736622-55.157544 647.326471 17.429552 376.462339 90.016648 105.598208 368.4268-55.163386 639.290931 17.42371 910.155063 90.010806 1070.900144 368.420957 998.329561 639.285089 925.742465 910.14922 647.332313 1070.894302 376.468182 998.323718z m6.406686-23.942513c257.654469 69.053511 522.491692-83.848333 591.528691-341.502802 69.020487-257.654469-83.881357-522.491692-341.519314-591.528692C375.229776-27.687288 110.392553 125.214557 41.355554 382.869026c-69.036999 257.654469 83.864845 522.491692 341.519314 591.528691z m17.090001-63.786158l2.14657-7.975334c10.56773 2.840077 21.218021 5.234329 31.901335 7.215778l-1.502599 8.123943c-10.897972-2.014474-21.746407-4.458261-32.528794-7.364387z m65.602487 12.119865l0.842116-8.223015c10.88146 1.122821 21.762919 1.816329 32.644379 2.047498l-0.198145 8.256039a414.783406 414.783406 0 0 1-33.28835-2.080522z m67.13811 1.453063l-0.495362-8.239527a405.701763 405.701763 0 0 0 32.528794-3.25288l1.155845 8.173479a413.957802 413.957802 0 0 1-33.189277 3.318928z m65.883192-9.263276l-1.783304-8.057894a408.195086 408.195086 0 0 0 31.587606-8.42116l2.443787 7.892773c-10.633778 3.285904-21.383141 6.142493-32.231577 8.586281z m64.298033-19.979615l-3.071247-7.645092a410.721434 410.721434 0 0 0 29.837326-13.374783l3.665681 7.397411c-9.956783 4.953623-20.111711 9.494445-30.43176 13.638976z m59.129752-29.325451l-4.243604-7.083681c9.362348-5.597595 18.493528-11.558455 27.360514-17.882581l4.788502 6.720416c-9.048619 6.439711-18.361431 12.549179-27.905412 18.245846z m54.588931-38.918968l-5.300377-6.307614c8.3386-7.017633 16.396494-14.365508 24.140658-22.027112l5.812252 5.861787c-7.925798 7.826725-16.1323 15.323209-24.652533 22.472939z m47.785954-47.290592l-6.258077-5.382938c7.100194-8.256039 13.870146-16.809296 20.293344-25.626745l6.670879 4.854551a414.5027 414.5027 0 0 1-20.706146 26.155132z m39.628988-54.522883l-7.067169-4.29314c5.663643-9.2963 10.947508-18.823769 15.851595-28.565895l7.380899 3.698705c-5.00316 9.956783-10.402609 19.682397-16.181837 29.16033z m30.316176-60.434206l-7.645092-3.087759c4.061971-10.072368 7.744165-20.34288 11.013556-30.795025l7.876261 2.476811c-3.33544 10.65029-7.100194 21.13546-11.228213 31.405973z m19.814494-62.84497l-8.057895-1.865865c2.476812-10.666803 4.507797-21.366629 6.109469-32.115992l8.156967 1.205382a420.116807 420.116807 0 0 1-6.208541 32.776475z m9.808174-66.015289l-8.239527-0.56141c0.743044-10.897972 1.040261-21.795943 0.891652-32.660891l8.256039-0.115585a414.122922 414.122922 0 0 1-0.908164 33.337886z m-0.924676-67.336255l-8.223015 0.79258a406.098052 406.098052 0 0 0-4.408725-32.380185l8.123942-1.453063c1.948425 10.947508 3.451024 21.961064 4.507798 33.040668z m-11.607991-65.404342l-7.975334 2.080522a408.839057 408.839057 0 0 0-9.527469-31.257364l7.793701-2.724493c3.665681 10.501682 6.902049 21.13546 9.709102 31.901335z m-22.225258-63.604525l-7.562531 3.351952a411.018652 411.018652 0 0 0-14.415045-29.341963l7.265315-3.929875c5.283865 9.77515 10.204464 19.748446 14.695749 29.919886z m-31.372948-58.006931l-6.935073 4.491285a410.820507 410.820507 0 0 0-18.823769-26.716542l6.538783-5.019672c6.769952 8.81745 13.176638 17.915605 19.220059 27.244929z m-40.83437-53.201916l-6.109469 5.531546c-7.314851-8.090918-14.943431-15.868107-22.88574-23.348078l5.663643-6.010397c8.090918 7.62858 15.884619 15.587402 23.331566 23.826929z m-48.958312-46.08521l-5.151768 6.43971a405.800835 405.800835 0 0 0-26.353277-19.352156l4.623382-6.852512c9.230252 6.241566 18.19631 12.829885 26.881663 19.764958z m-55.975945-37.680563l-4.028947 7.199266a406.312709 406.312709 0 0 0-29.143818-14.827846l3.467536-7.496484c10.121904 4.639894 20.029151 9.69259 29.721741 15.125064z m-61.524004-28.169605l-2.807053 7.760676a413.776169 413.776169 0 0 0-31.174804-9.923759l2.196107-7.958821c10.765875 2.972174 21.366629 6.340638 31.78575 10.121904z m-63.241259-17.535827l-1.58516 8.10743a409.829782 409.829782 0 0 0-32.314137-4.970136l0.924677-8.206503a418.085821 418.085821 0 0 1 32.958108 5.069209zM520.882818 91.067579l-0.264193 8.256039a405.52013 405.52013 0 0 0-32.693915 0.264193l-0.39629-8.256039a413.776169 413.776169 0 0 1 33.354398-0.264193z m-66.626236 3.236367l1.073285 8.189991c-10.815411 1.403527-21.564774 3.252879-32.231576 5.515034l-1.717256-8.074406c10.88146-2.311691 21.84548-4.194068 32.875547-5.614107z m-65.618999 14.002243l2.37774 7.925797c-10.452146 3.120783-20.772194 6.654368-30.943635 10.617267l-2.972174-7.694629a417.722555 417.722555 0 0 1 31.538069-10.848435z m-62.877994 24.520436l3.616146 7.430435c-9.808174 4.755479-19.418204 9.907247-28.813577 15.438793l-4.194068-7.100193c9.577005-5.647131 19.38518-10.897972 29.391499-15.769035z m-56.718988 33.304862l4.722454 6.769952c-8.949546 6.241566-17.6349 12.846397-26.056059 19.78147l-5.250841-6.373663c8.586281-7.067169 17.453267-13.804097 26.584446-20.177759z m-51.765366 42.700234l5.746204 5.927836c-7.826725 7.595556-15.339721 15.488329-22.538987 23.67832l-6.19203-5.448985c7.331363-8.355112 15.009479-16.413006 22.984813-24.157171z m-44.367954 50.626032l6.621343 4.920599c-6.489247 8.751401-12.63174 17.766996-18.394455 27.01376l-7.017633-4.359188c5.894812-9.444909 12.169402-18.658648 18.790745-27.575171z m-35.666089 57.296912l7.331363 3.797778c-4.970136 9.659566-9.577005 19.550301-13.771073 29.63918L123.189414 347.004792c4.29314-10.303537 8.966058-20.392417 14.035266-30.26664z m-25.973499 62.547752l7.843237 2.54286a415.443889 415.443889 0 0 0-8.536744 30.283151l-8.02487-1.948425a424.822749 424.822749 0 0 1 8.718377-30.877586z m-15.25716 63.571501l8.156966 1.287942c-1.717256 10.798899-3.005198 21.630823-3.847314 32.479258l-8.223015-0.660483c0.858628-11.063092 2.163082-22.093161 3.913363-33.106717z m-5.168281 66.758333l8.256039-0.033025c0.049536 10.914484 0.528387 21.812455 1.436551 32.660891l-8.223015 0.693507a413.677096 413.677096 0 0 1-1.469575-33.321373z m5.614107 66.411578l8.140454-1.35399c1.783304 10.765875 4.012435 21.432678 6.654368 32.000407l-8.008358 1.997962a415.443889 415.443889 0 0 1-6.786464-32.644379z m16.346957 65.173173l7.810213-2.641932c3.500561 10.320049 7.397411 20.508001 11.723576 30.530832l-7.595556 3.25288a418.267454 418.267454 0 0 1-11.938233-31.14178z m26.749567 62.068902l7.298339-3.880338c5.118744 9.626542 10.617266 19.054938 16.479054 28.252166l-6.968097 4.441749a419.50586 419.50586 0 0 1-16.792784-28.813577z m35.203751 55.348486l6.604831-4.953623c6.538783 8.718377 13.440832 17.172561 20.65661 25.329528l-6.175517 5.465498a418.217918 418.217918 0 0 1-21.085924-25.841403z m44.516563 50.262767l5.729691-5.944348c7.859749 7.529508 16.016716 14.77831 24.4709 21.663846l-5.234329 6.406687a415.37784 415.37784 0 0 1-24.966262-22.126185z m52.178167 42.551625l4.68943-6.802976c8.982571 6.175517 18.19631 11.987769 27.657731 17.436755l-4.111507 7.14973a413.677096 413.677096 0 0 1-28.235654-17.783509z m58.617878 33.618592l3.50056-7.46346c9.841199 4.623382 19.880542 8.866986 30.118031 12.714301l-2.906126 7.727652a416.764855 416.764855 0 0 1-30.712465-12.978493z m61.903781 23.315054l2.278667-7.925797c2.575884 0.743044 5.16828 1.453063 7.760677 2.14657l-2.14657 7.975334c-2.641933-0.710019-5.283865-1.436551-7.892774-2.196107z m249.695647-210.330853l4.623382 6.836001A236.948323 236.948323 0 0 1 451.366969 737.515442a237.328101 237.328101 0 0 1-152.522067-125.904596l7.430435-3.599633a229.072062 229.072062 0 0 0 147.22169 121.528896 228.692284 228.692284 0 0 0 188.171643-31.521558z m-279.021098-360.128426l-5.366425-6.27459a236.964835 236.964835 0 0 1 215.647742-48.446437 237.377637 237.377637 0 0 1 162.56141 149.92967l-7.777189 2.757517a229.121598 229.121598 0 0 0-156.930791-144.711854 228.708796 228.708796 0 0 0-208.134747 46.729182z m20.689634 149.071042l-118.672306-31.802262-14.101315 52.640505c-1.948425 7.265314 0.710019 11.888696 7.991846 13.837122l95.505861 25.593721a14.69575 14.69575 0 0 0 10.303536-0.941189c3.830802-2.047498 8.81745-13.02803 15.356233-32.809499l16.247885 10.518194c-8.751401 23.496687-15.851595 36.987055-21.0529 40.289471-5.713179 2.988686-12.466619 3.632657-20.408928 1.931913l-105.644277-28.318214c-16.280909-4.359189-22.060137-14.926919-17.535827-31.769239l26.667006-99.534808 18.361431 4.937112-7.017633 26.22118 100.096218 26.815615 12.218938-45.556824-126.33391-33.84976 4.672918-17.403731 144.876974 38.803384-21.53175 80.397309z m124.864336 88.224034l-4.821527 17.998166a1262.067677 1262.067677 0 0 1-99.898073-9.940271l0.462338-18.559576c15.141576 2.427276 30.217103 4.408725 45.12751 6.142493l8.454184-31.571094-35.401896-9.494445 4.656406-17.420242 35.418408 9.494445 5.432474-20.293345 18.377943 4.937112-5.448986 20.276832 32.363673 8.668841-4.672918 17.420242-32.363673-8.668841-7.62858 28.51636c13.440832 1.155845 26.782591 1.849353 39.959229 2.493323z m-61.226786-159.589236l96.265416 25.791866-4.623382 17.23861-48.033635-12.879421c-12.450107 14.29946-23.298542 24.933238-32.41321 32.132504 15.719498 2.575884 31.207828 4.458261 46.630109 5.944348-2.295179-6.769952-4.540822-13.738049-7.14973-20.805218l16.379982-5.250841c8.123942 20.227296 13.98573 37.399857 17.337682 51.633269l-17.932117 6.472734c-1.254918-5.267353-2.641933-10.765875-3.995923-16.462542a1039.831616 1039.831616 0 0 1-81.206401-10.072367l0.330242-17.337683c3.170319 0.445826 5.812252 0.528387 7.546019 0.165121 7.512996-3.517073 19.187035-14.134339 34.95607-31.653654l-28.714504-7.694628 4.623382-17.222098z m101.004382 207.177046l-28.334726-7.595556 0.693508-18.675161a434.432779 434.432779 0 0 0 25.775354 7.925798c4.788503 1.287942 7.94231-0.544899 9.279788-5.515034l40.256446-150.259912 18.377943 4.953623-41.494852 154.817246c-3.484049 13.011518-11.723576 17.783508-24.553461 14.348996z m5.729692-166.887575l17.618387 4.722454-31.438997 117.334828-17.618387-4.722454 31.438997-117.334828z m96.381 7.777189l17.618388 4.722454-5.283865 19.715422 33.106717 8.866986 5.184792-19.319132 17.601876 4.705942-5.184793 19.319132 9.956783 2.674957-4.507797 16.842319-9.956783-2.658444-20.557538 76.74814 10.897972 2.922637-4.507797 16.84232-91.675059-24.569972 4.507798-16.84232 12.450107 3.33544 20.557537-76.74814-10.336561-2.774029 4.507797-16.84232 10.336561 2.774029 5.283865-19.715421z m-12.747324 118.028335l33.106717 8.866986 4.012435-14.926919-33.123229-8.866986-3.995923 14.926919z m53.664254-67.864641l-33.106717-8.883499-4.045459 15.125064 33.106717 8.866986 4.061971-15.125064z m-45.408215 37.053103l33.106717 8.866986 4.012435-14.926919-33.123229-8.866986-3.995923 14.926919z m20.689634 59.080216c5.16828 12.053817 9.081643 22.737132 11.624503 31.62063 15.224136-13.969218 26.320253-33.139741 33.189277-57.973907l24.503925-91.476913 67.749057 18.146774-40.305983 150.425033c-3.285904 12.251962-11.228213 16.677199-23.678321 13.358271l-19.913566-5.333401-0.198145-19.137499c6.769952 2.229131 12.995006 4.29314 18.922842 5.894812 4.21058 1.122821 7.034145-0.990725 8.42116-6.159005l9.345836-34.840485-32.528794-8.701866c-9.411885 24.355315-22.654571 43.162573-39.794109 56.619917l-9.791662-15.554378-12.961982 4.738966c-2.229131-10.848435-5.944348-22.935277-10.964019-36.376108l16.379981-5.250841z m-41.643461-10.732851l12.648252 10.96402a161.702782 161.702782 0 0 1-33.783712 28.896137l-11.591479-14.183875a143.440424 143.440424 0 0 0 32.726939-25.692794z m112.282132-39.265722l-7.925798 29.47406 31.405973 8.42116 7.892774-29.490572-31.372949-8.42116z m35.781673-8.057894l7.843238-29.275915-31.372949-8.42116-7.859749 29.292427 31.38946 8.42116z" fill="#d81e06" p-id="3381"></path></svg>