<?xml version="1.0" standalone="no"?><!DOCTYPE svg PUBLIC "-//W3C//DTD SVG 1.1//EN" "http://www.w3.org/Graphics/SVG/1.1/DTD/svg11.dtd"><svg t="1600941910451" class="icon" viewBox="0 0 1024 1024" version="1.1" xmlns="http://www.w3.org/2000/svg" p-id="5077" xmlns:xlink="http://www.w3.org/1999/xlink" width="200" height="200"><defs><style type="text/css"></style></defs><path d="M512 0A512 512 0 1 0 1024 512 512 512 0 0 0 512 0z m247.808 575.960615v273.014154H623.852308V592.974769c-35.446154 2.363077-72.940308 3.780923-111.852308 3.780923s-76.406154-1.417846-111.852308-3.780923v256h-136.743384V575.803077c-79.714462-15.753846-130.284308-38.281846-130.284308-63.015385s50.569846-48.364308 130.284308-63.803077V184.950154h136.743384v238.355692h223.704616V184.950154h135.955692v263.089231c80.187077 15.753846 131.072 38.439385 131.072 63.960615s-50.884923 48.521846-131.072 63.960615z" p-id="5078" fill="#1296db"></path><path d="M759.808 466.313846v24.103385A1214.464 1214.464 0 0 1 512 512a1217.929846 1217.929846 0 0 1-248.595692-21.740308v-23.788307c-44.268308 10.082462-70.892308 22.843077-70.892308 36.706461 0 19.534769 52.460308 36.706462 132.804923 47.261539 6.459077 0.945231 12.918154 1.732923 19.534769 2.363077h2.363077c29.617231 3.308308 61.282462 5.671385 94.523077 6.931692h0.787692l30.72 0.945231H551.384615l30.72-0.945231c33.398154-1.417846 65.063385-3.780923 94.523077-7.089231h2.048l19.849846-1.260308c80.344615-10.712615 132.962462-27.884308 132.962462-47.261538 0-14.966154-26.939077-27.726769-71.68-37.809231z" p-id="5079" fill="#1296db"></path></svg>