<?xml version="1.0" standalone="no"?><!DOCTYPE svg PUBLIC "-//W3C//DTD SVG 1.1//EN" "http://www.w3.org/Graphics/SVG/1.1/DTD/svg11.dtd"><svg t="1600927498272" class="icon" viewBox="0 0 1024 1024" version="1.1" xmlns="http://www.w3.org/2000/svg" p-id="9713" xmlns:xlink="http://www.w3.org/1999/xlink" width="200" height="200"><defs><style type="text/css"></style></defs><path d="M430.4 0H0l1024 1024V593.6L430.4 0z" fill="#AEAEAE" p-id="9714"></path><path d="M452.16 344.64c17.28 17.28 24.64 15.04 52.16-8a76.16 76.16 0 0 0 9.28 21.44c-32 26.88-48.32 29.76-76.48 1.6l-57.6-57.92c-28.48-28.16-32-42.24-9.6-64L448 160l15.68 15.68-24.64 24.64 80 80 39.68-40.32-103.04-103.36 14.72-14.72 119.04 118.72L512 317.44l-15.68-15.68 7.68-8-80-80L384 253.12c-10.24 10.24-8.96 15.68 8.64 32zM629.12 528c5.76 5.76 9.28 3.84 28.16-13.44a61.76 61.76 0 0 0 7.36 19.84c-24.32 21.12-34.24 22.72-48 8.96l-23.04-23.04c-16.64-16.64-16.32-24.96 0-40l36.8-36.48-25.6-25.92c-35.2 30.4-60.8 39.68-110.4 7.04a67.84 67.84 0 0 0 4.8-20.8c42.88 29.76 61.44 23.04 89.92-1.6l-42.24-42.24 14.4-14.08L704 489.92l-14.08 14.4-45.12-45.44L608 495.68c-4.8 4.8-4.48 6.4 1.6 12.8z m-28.8-184.32l-15.04-15.36 37.76-37.76L684.48 352a177.28 177.28 0 0 0 8-21.76l19.84 10.88a163.84 163.84 0 0 1-9.92 29.12l56.64 56.64-37.76 37.76-15.68-16.64 23.36-23.36L623.68 320z m4.16 15.04l13.76-13.76L704 431.04l-13.76 13.76zM880.96 624a267.52 267.52 0 0 1-83.52 26.88c-8.64 19.52-10.56 34.24-3.84 40.96s14.72-1.92 36.8-22.08a56.96 56.96 0 0 0 4.48 21.44c-32 26.24-44.48 28.48-57.92 15.04a48.96 48.96 0 0 1-4.16-53.12 232.64 232.64 0 0 1-56-5.76 144.96 144.96 0 0 0 1.6-23.68 180.8 180.8 0 0 0 64 7.04 428.8 428.8 0 0 1 55.68-78.72l-52.16-52.48-19.84 19.84 40.96 40.96-5.76 5.76c-36.48 34.88-51.2 48-59.2 48.96a19.84 19.84 0 0 1-15.68-5.12 144.64 144.64 0 0 1-19.52-18.88 56.32 56.32 0 0 0 9.92-18.24c6.08 7.36 12.48 13.76 15.04 16.32a8.64 8.64 0 0 0 7.04 3.2 160 160 0 0 0 39.36-32l-25.92-26.24a208.96 208.96 0 0 1-96 59.84 81.6 81.6 0 0 0-2.24-23.36 181.76 181.76 0 0 0 82.88-54.4l46.4-46.4 67.2 67.2c8-8.96 16.32-18.24 24.96-26.88l16 16c-8.96 8.64-17.6 17.6-25.6 26.56l32 32a228.48 228.48 0 0 0-8.64-42.56h18.56a266.88 266.88 0 0 1 10.24 46.4h-16.32l16.64 16.64-14.72 14.72-51.52-51.2a485.12 485.12 0 0 0-43.52 59.52 220.8 220.8 0 0 0 59.52-22.08z" fill="#FFFFFF" p-id="9715"></path></svg>