<?xml version="1.0" standalone="no"?><!DOCTYPE svg PUBLIC "-//W3C//DTD SVG 1.1//EN" "http://www.w3.org/Graphics/SVG/1.1/DTD/svg11.dtd"><svg t="1600927473561" class="icon" viewBox="0 0 1024 1024" version="1.1" xmlns="http://www.w3.org/2000/svg" p-id="9587" xmlns:xlink="http://www.w3.org/1999/xlink" width="200" height="200"><defs><style type="text/css"></style></defs><path d="M430.4 0H0l1024 1024V593.6L430.4 0z" fill="#FF7800" p-id="9588"></path><path d="M391.04 257.92c0 4.48 1.92 10.24 3.84 17.92a119.68 119.68 0 0 0 35.84 50.56 705.92 705.92 0 0 0 64 55.68 96 96 0 0 0-20.48 11.2c-13.44-9.28-42.56-37.44-58.24-53.44a120.64 120.64 0 0 1-36.48-54.08c-2.88-11.2-2.88-21.76-6.72-25.28s-22.72-2.88-40.32 0l3.84-24a111.68 111.68 0 0 1 41.6 4.8l43.52-43.52-20.8-20.48 15.36-13.76 35.52 35.52z m79.68 12.8a92.16 92.16 0 0 1-64 18.56 75.2 75.2 0 0 0 0-22.4A72.32 72.32 0 0 0 455.68 256l-20.8-20.48 14.72-14.4 22.4 22.4c4.16-3.52 7.68-7.04 11.2-10.56l15.36-15.36-21.76-22.4 14.72-14.4 21.76 21.76 24.64-24.96 15.04 15.04-24.64 24.64 23.04 23.36 24.64-24.96 15.04 15.04-24.64 25.28 19.84 19.84-14.4 14.72-19.84-20.16-26.24 26.56 23.04 23.04-14.72 14.4-22.08-23.36L472 352l-15.04-15.04 39.04-40.96z m-8-98.24a263.04 263.04 0 0 0 2.56-52.16l19.2 2.56a301.44 301.44 0 0 1 0 51.52z m35.52 74.88l-11.2 10.56 24.96 23.68 24.96-25.6-23.36-23.04zM651.2 363.52a260.8 260.8 0 0 1-42.88 7.36l-85.44 85.44-15.04-15.36L576 372.48a193.6 193.6 0 0 1-32-1.6 135.36 135.36 0 0 0 1.92-23.36 244.8 244.8 0 0 0 96-3.84z m64 119.36l-23.36-23.04-64 64c-8.32 8.64-14.4 10.56-23.04 6.72a160 160 0 0 1-32-28.16 87.36 87.36 0 0 0 9.28-19.84c9.92 10.88 21.12 21.76 24 24.64s4.8 3.2 7.36 0l64-64-53.44-50.24 14.4-14.4 89.92 90.24z m-34.56-160a289.6 289.6 0 0 1-85.76-2.88 93.76 93.76 0 0 0 3.2-21.12 207.36 207.36 0 0 0 73.92 3.52z m75.2 111.36l-80.32-79.04 14.4-14.4L768 420.16zM909.76 598.72L832 676.48l-16-15.68 8.96-8.96-42.56-42.24-51.84 51.84-16-16L768 593.6l-42.56-42.24-9.6 9.6-15.04-15.04 78.72-79.04 57.6 57.6 26.88-28.48 15.68 15.68-28.48 28.48z m-128-19.84l39.36-39.68-42.24-42.24-39.36 39.36z m58.24 58.24l39.68-39.68-42.56-42.24-40.32 39.36z" fill="#FFFFFF" p-id="9589"></path></svg>