<svg id="图层_1" data-name="图层 1" xmlns="http://www.w3.org/2000/svg" xmlns:xlink="http://www.w3.org/1999/xlink" viewBox="0 0 710.66 707.53"><defs><style>.cls-1{fill:none;}.cls-2{clip-path:url(#clip-path);}.cls-3{fill:#fff;}</style><clipPath id="clip-path" transform="translate(-64.88 56.25)"><rect class="cls-1" x="65" y="-56.72" width="710.88" height="708.96"/></clipPath></defs><title>j-02</title><g class="cls-2"><path class="cls-3" d="M671.45,47.32C604.35-19.47,515.15-56.25,420.24-56.25S236.11-19.47,169,47.32,64.88,203,64.88,297.51s37,183.39,104.11,250.2S325.31,651.28,420.22,651.28s184.13-36.75,251.21-103.57S775.54,392,775.54,297.48,738.62,114.12,671.45,47.32ZM597.92,322.89H445.63v152.3a25.39,25.39,0,1,1-50.77,0V322.89H242.56a25.39,25.39,0,1,1,0-50.77h152.3V119.83a25.39,25.39,0,1,1,50.77,0v152.3H597.92a25.39,25.39,0,1,1,0,50.77Zm0,0" transform="translate(-64.88 56.25)"/></g></svg>