<svg id="图层_1" data-name="图层 1" xmlns="http://www.w3.org/2000/svg" xmlns:xlink="http://www.w3.org/1999/xlink" viewBox="0 0 819.21 819.21"><defs><style>.cls-1{fill:none;}.cls-2{clip-path:url(#clip-path);}.cls-3{fill:#2969e3;}</style><clipPath id="clip-path" transform="translate(-10.88 111.22)"><rect class="cls-1" x="11" y="-111.72" width="819.84" height="820.72"/></clipPath></defs><title>tanhao</title><g class="cls-2"><path class="cls-3" d="M418.63,389.71a52.58,52.58,0,0,0,53.51-53V87.13a53.5,53.5,0,0,0-106.55,0V336.67a53,53,0,0,0,53,53Zm0,48.9a60.89,60.89,0,1,0,1.85,0Zm1.85-549.83A409.14,409.14,0,1,1,130.71,8.62,409.6,409.6,0,0,1,420.48-111.22Zm0,0" transform="translate(-10.88 111.22)"/></g></svg>