<?xml version="1.0" standalone="no"?><!DOCTYPE svg PUBLIC "-//W3C//DTD SVG 1.1//EN" "http://www.w3.org/Graphics/SVG/1.1/DTD/svg11.dtd"><svg t="1600941202661" class="icon" viewBox="0 0 1024 1024" version="1.1" xmlns="http://www.w3.org/2000/svg" p-id="4703" xmlns:xlink="http://www.w3.org/1999/xlink" width="200" height="200"><defs><style type="text/css"></style></defs><path d="M588.878769 456.861538v85.700924c-24.260923 1.260308-50.254769 1.890462-77.036307 1.890461s-51.672615 0-75.618462-1.890461V456.861538c-137.531077 6.301538-239.616 28.987077-239.616 56.241231s102.715077 49.939692 239.616 56.241231h9.137231l27.726769 0.787692h115.790769c136.743385-6.301538 238.198154-29.144615 238.198154-56.083692S725.779692 463.320615 588.878769 456.861538z" p-id="4704" fill="#3cb982"></path><path d="M512 0A512 512 0 1 0 1024 512 512 512 0 0 0 512 0z m77.036308 604.790154v297.590154H436.381538V604.947692c-173.292308-7.876923-305.152-42.220308-305.152-83.337846s131.072-75.460923 305.152-83.337846v-92.632615H222.286769v-141.784616H803.446154v141.784616H589.036308v92.632615c173.292308 8.034462 303.734154 42.220308 303.734154 83.337846s-130.441846 75.303385-303.734154 83.180308z" p-id="4705" fill="#3cb982"></path></svg>