<svg id="图层_1" data-name="图层 1" xmlns="http://www.w3.org/2000/svg" xmlns:xlink="http://www.w3.org/1999/xlink" viewBox="0 0 819.02 819.01"><defs><style>.cls-1{fill:none;}.cls-2{clip-path:url(#clip-path);}.cls-3{fill:#fff;}</style><clipPath id="clip-path" transform="translate(-10.88 111.01)"><rect class="cls-1" x="11" y="-111.72" width="819.84" height="820.72"/></clipPath></defs><title>yhk-03</title><g class="cls-2"><path class="cls-3" d="M709.94,588.06C550,748,290.74,748,130.82,588.05s-159.92-419.2,0-579.12S550-151,709.94,8.92a409.47,409.47,0,0,1,0,579.14ZM594.28,279.55,440.15,125.23a27.49,27.49,0,0,0-38.73,0L247.29,279.55a27.29,27.29,0,0,0,0,38.57L401.42,472.43a27.43,27.43,0,0,0,38.73,0L594.28,318.12a27.29,27.29,0,0,0,0-38.49Zm0,0" transform="translate(-10.88 111.01)"/></g></svg>