<svg id="图层_1" data-name="图层 1" xmlns="http://www.w3.org/2000/svg" viewBox="0 0 1070.58 818.89"><defs><style>.cls-1{fill:#fff;}</style></defs><title>zfb-04</title><path class="cls-1" d="M586.19,403.48a869.06,869.06,0,0,0,97.65-247H446.94V74.28h292.6V24.19H446.94V-111.58H335.52a18.62,18.62,0,0,0-14.42,4.35,18.69,18.69,0,0,0-6.5,13.6V24.19H39.43V74.28H314.6V156.5H88.2v46.62H541a822.87,822.87,0,0,1-66.15,161,1072.85,1072.85,0,0,0-285.6-71.51c-236.87-21.74-292.63,110.89-303,189.33C-127.72,607.3-19.76,707.16,144,707.16c160.25,0,268.21-75,372.7-200C621.19,557.21,795.33,642.9,868.48,678.81c30.46-28.36,45.27-67.73,87.1-157.52-66.37-21.41-310.2-96.39-369.39-117.81ZM122.91,632.18c-170.68,0-198.46-110.89-188.1-153.73C-54.73,431.83-6,374.81,88.07,374.81A721.28,721.28,0,0,1,412,460.5c-83.61,107.42-184.6,171.68-289.1,171.68Zm0,0" transform="translate(115 111.72)"/></svg>