<?xml version="1.0" standalone="no"?><!DOCTYPE svg PUBLIC "-//W3C//DTD SVG 1.1//EN" "http://www.w3.org/Graphics/SVG/1.1/DTD/svg11.dtd"><svg t="1604400895751" class="icon" viewBox="0 0 1024 1024" version="1.1" xmlns="http://www.w3.org/2000/svg" p-id="2843" xmlns:xlink="http://www.w3.org/1999/xlink" width="200" height="200"><defs><style type="text/css"></style></defs><path d="M821.378841 549.976676c0 10.495754 1.657224 20.991508 1.657224 31.763466A380.056773 380.056773 0 1 1 289.409841 234.275447l29.001425-76.232318A441.92648 441.92648 0 1 0 884.905772 581.740142a451.041214 451.041214 0 0 0-8.562325-87.004276z" fill="#696969" p-id="2844"></path><path d="M351.555752 547.214635A195.000059 195.000059 0 0 1 691.562937 416.017712c16.019835-16.019835 34.525506-32.315874 50.269138-45.573669a271.508581 271.508581 0 0 0-88.937705-62.422115 171.798919 171.798919 0 1 0-209.36267 0A266.536908 266.536908 0 0 0 282.228535 554.119737a37.011343 37.011343 0 0 0 70.708237 15.74363 188.094958 188.094958 0 0 1-1.38102-22.648732z m87.556684-374.532692a109.1006 109.1006 0 1 1 109.100599 110.481621 108.824396 108.824396 0 0 1-109.100599-110.481621z" fill="#696969" p-id="2845"></path><path d="M867.781121 400.826489a25.963181 25.963181 0 0 0-45.297464-17.124651l-200.247936 196.381079-93.633173-104.405131a25.410773 25.410773 0 0 0-18.781876-7.733713 27.620405 27.620405 0 0 0-27.620405 27.620405 25.686977 25.686977 0 0 0 8.009918 18.781875l102.747907 116.55811a37.287547 37.287547 0 0 0 27.620405 12.429182 37.011343 37.011343 0 0 0 26.239384-10.771958l212.124711-211.572303a24.58216 24.58216 0 0 0 8.838529-20.162895z" fill="#0066F3" p-id="2846"></path></svg>