<?xml version="1.0" standalone="no"?><!DOCTYPE svg PUBLIC "-//W3C//DTD SVG 1.1//EN" "http://www.w3.org/Graphics/SVG/1.1/DTD/svg11.dtd"><svg t="1604400888830" class="icon" viewBox="0 0 1024 1024" version="1.1" xmlns="http://www.w3.org/2000/svg" p-id="2696" xmlns:xlink="http://www.w3.org/1999/xlink" width="200" height="200"><defs><style type="text/css"></style></defs><path d="M821.896705 549.183138c0 10.513324 1.659999 21.026649 1.659999 31.816639A380.693006 380.693006 0 1 1 289.037163 232.95341l29.049975-76.359935A442.666286 442.666286 0 1 0 885.529984 580.999777a451.796278 451.796278 0 0 0-8.576659-87.149925z" fill="#696969" p-id="2697"></path><path d="M591.43357 0.000277a271.686433 271.686433 0 1 0 271.686433 271.409766A271.409767 271.409767 0 0 0 591.43357 0.000277z m0 479.739587a208.329821 208.329821 0 1 1 208.606487-208.329821 208.329821 208.329821 0 0 1-208.606487 208.329821z" fill="#696969" p-id="2698"></path><path d="M549.656939 489.976522m-93.236586 0a93.236587 93.236587 0 1 0 186.473173 0 93.236587 93.236587 0 1 0-186.473173 0Z" fill="#FFFFFF" p-id="2699"></path><path d="M595.030234 171.810129a49.246624 49.246624 0 0 0-34.029971 13.279989 48.416625 48.416625 0 0 0-14.939987 34.02997 45.096628 45.096628 0 0 0 14.939987 34.306638 47.033293 47.033293 0 0 0 34.029971 13.279988 50.076624 50.076624 0 0 0 34.306637-13.279988 47.586626 47.586626 0 0 0 13.279988-34.306638 49.799957 49.799957 0 0 0-13.279988-34.02997 50.076624 50.076624 0 0 0-34.306637-13.279989zM592.263569 595.939765a35.413303 35.413303 0 0 1-6.086661-25.176645 129.479889 129.479889 0 0 1 1.383332-20.749983c1.659999-8.853326 3.043331-17.983318 4.703329-25.176645l16.599986-92.129921a172.916518 172.916518 0 0 0 3.043331-27.666642c0-10.236658 1.383332-17.706651 1.383332-20.749983a69.443274 69.443274 0 0 0-14.939987-47.309959 46.47996 46.47996 0 0 0-39.839966-17.706651 92.95992 92.95992 0 0 0-31.263307 7.193327 241.253126 241.253126 0 0 0-34.02997 17.983318l-4.426663 27.666643a52.566621 52.566621 0 0 1 11.896656-6.086662 55.333286 55.333286 0 0 1 14.663321-3.043331 23.793313 23.793313 0 0 1 19.36665 7.469994 49.523291 49.523291 0 0 1 4.426663 25.176645 110.666572 110.666572 0 0 1-1.383332 20.749982c-1.659999 7.469994-3.043331 16.323319-4.70333 25.176645l-16.323319 92.129921a198.093163 198.093163 0 0 0-2.766664 25.176645 100.70658 100.70658 0 0 0-1.659999 22.133314 72.209938 72.209938 0 0 0 14.939987 47.586626 51.736622 51.736622 0 0 0 41.499965 17.706652 62.249947 62.249947 0 0 0 29.603308-5.809995 304.333072 304.333072 0 0 0 34.306637-19.36665l4.426663-27.666643-11.896657 6.086661a72.209938 72.209938 0 0 1-14.939987 2.766664 18.536651 18.536651 0 0 1-19.089983-5.809995z" fill="#0066F3" p-id="2700"></path></svg>