<svg id="图层_1" data-name="图层 1" xmlns="http://www.w3.org/2000/svg" viewBox="0 0 37 37"><defs><style>.cls-1{fill:#696969;}.cls-2{fill:#0066f3;}</style></defs><title>图标</title><path class="cls-1" d="M29.7,19.85c0,.38.06.76.06,1.15A13.76,13.76,0,1,1,10.44,8.42l1.05-2.76A16,16,0,1,0,32,21a16.33,16.33,0,0,0-.31-3.15Z"/><path class="cls-1" d="M27.44.61A2.15,2.15,0,0,0,25.94,0H15.17a2.09,2.09,0,0,0-2.11,2.08V20.83a2.09,2.09,0,0,0,.61,1.48,2.15,2.15,0,0,0,1.5.61h2.45c.62,0,1.13-.28,1.13-1.07,0-.54-.29-.83-1.13-.83v0h-2a.47.47,0,0,1-.48-.47V2.86a.47.47,0,0,1,.48-.48H25.5a.47.47,0,0,1,.48.48V13h0v.08h0a1,1,0,0,0,2,0h0v-11A2.08,2.08,0,0,0,27.44.61Z"/><rect class="cls-1" x="16.57" y="5.45" width="7.92" height="1.82" transform="translate(41.05 12.72) rotate(180)"/><rect class="cls-1" x="16.57" y="9.63" width="7.92" height="1.82" transform="translate(41.05 21.09) rotate(180)"/><path class="cls-2" d="M23.13,20.79c0-.07,0-.11,0-.2a13.78,13.78,0,0,1,1-1.23c.35-.34.79-.59,1.15-.92a2.84,2.84,0,0,0-.43-4.51,4.86,4.86,0,0,0-4.13-.35,3.22,3.22,0,0,0-1.91,3.29H21c0-.18.08-.32.11-.46.19-.67.52-1.18,1.29-1.21a1.26,1.26,0,0,1,1.39.74,1.47,1.47,0,0,1-.6,1.81c-.35.28-.72.52-1.07.79a2.06,2.06,0,0,0-.86,2.25Z"/><path class="cls-2" d="M22.32,22A1.37,1.37,0,0,0,21,23.45a1.35,1.35,0,0,0,1.41,1.3,1.33,1.33,0,0,0,1.34-1.36A1.35,1.35,0,0,0,22.32,22Z"/></svg>