<?xml version="1.0" standalone="no"?><!DOCTYPE svg PUBLIC "-//W3C//DTD SVG 1.1//EN" "http://www.w3.org/Graphics/SVG/1.1/DTD/svg11.dtd"><svg t="1601026555843" class="icon" viewBox="0 0 1024 1024" version="1.1" xmlns="http://www.w3.org/2000/svg" p-id="1644" xmlns:xlink="http://www.w3.org/1999/xlink" width="200" height="200"><defs><style type="text/css"></style></defs><path d="M905.92768 574.58176V167.82336h-39.81824s-88.18176-2.84672-179.2-39.82336c-93.86496-36.97664-153.6-82.48832-153.6-82.48832l-22.75328-17.06496-22.75328 17.06496s-59.73504 42.66496-153.6 82.48832c-91.02336 36.97664-179.2 39.82336-179.2 39.82336h-39.82336v406.7584c0 204.8 258.84672 420.97664 398.22336 420.97664 139.37664-0.00512 398.21824-216.17664 392.5248-420.97664z m-73.94816 2.83648c0 156.45184-227.5584 338.48832-318.58176 338.48832-93.86496 0-318.57664-182.0416-318.57664-338.48832V247.46496C234.64448 241.77664 300.06784 230.4 365.4912 204.8c68.26496-28.44672 119.46496-59.73504 147.91168-76.8 28.44672 17.06496 79.64672 48.35328 147.91168 76.8 68.27008 28.44672 130.84672 36.97664 170.67008 42.66496v329.95328z" p-id="1645"></path><path d="M471.97184 767.1552a38.64576 38.64576 0 0 0 77.28128 0 38.64576 38.64576 0 0 0-77.28128 0z m88.08448-452.81792c0-27.30496-22.13376-49.45408-49.45408-49.45408s-49.45408 22.14912-49.45408 49.45408c0 0.98816 0.04608 1.96608 0.09728 2.944h-0.01024l10.73152 315.43296a38.64064 38.64064 0 0 0 77.27616 0l10.73152-315.43296h-0.01024c0.0512-0.97792 0.09216-1.95584 0.09216-2.944z" p-id="1646"></path></svg>