<?xml version="1.0" standalone="no"?><!DOCTYPE svg PUBLIC "-//W3C//DTD SVG 1.1//EN" "http://www.w3.org/Graphics/SVG/1.1/DTD/svg11.dtd"><svg t="1601020556169" class="icon" viewBox="0 0 1024 1024" version="1.1" xmlns="http://www.w3.org/2000/svg" p-id="15084" xmlns:xlink="http://www.w3.org/1999/xlink" width="200" height="200"><defs><style type="text/css"></style></defs><path d="M821.796943 549.336007c0 10.509939 1.659464 21.019879 1.659464 31.806396A380.570441 380.570441 0 1 1 289.108957 233.20809l29.040622-76.33535A442.523768 442.523768 0 1 0 885.409734 581.142403a451.650821 451.650821 0 0 0-8.573898-87.121867z" fill="#696969" p-id="15085"></path><path d="M815.159086 91.600484h-29.040622a162.07433 162.07433 0 0 1-20.466724-2.765774 250.855661 250.855661 0 0 1-63.059637-20.466724 449.161625 449.161625 0 0 1-58.357822-34.572169l-15.76491-12.999136-4.14866-3.042351c1.659464 1.382887 0 0 1.382887 1.659464A6.361279 6.361279 0 0 0 622.661247 16.924598L608.832379 5.584927a19.91357 19.91357 0 0 0-27.657735 0l-11.339672 11.339671a241.452031 241.452031 0 0 1-21.296456 16.318064 465.479689 465.479689 0 0 1-58.6344 34.572169 237.026793 237.026793 0 0 1-63.059637 20.466725 204.114088 204.114088 0 0 1-20.466724 3.042351h-27.657735a27.657736 27.657736 0 0 0-22.679343 27.657735v110.630942a217.389801 217.389801 0 0 1 55.315471-14.6586V158.808781A245.324114 245.324114 0 0 0 442.885966 154.936698a270.216076 270.216076 0 0 0 69.697494-22.679343 475.436474 475.436474 0 0 0 61.123595-36.508211 269.109767 269.109767 0 0 0 23.509075-18.254105 444.736387 444.736387 0 0 0 85.185826 55.315471 266.897148 266.897148 0 0 0 69.697493 22.679343 241.175454 241.175454 0 0 0 31.253241 3.872083v226.516854c0 99.014693-110.630942 229.282627-181.711322 233.984442a231.218669 231.218669 0 0 1-70.250648 50.613657 141.331029 141.331029 0 0 0 66.378565 20.466724c98.738116 0 241.452031-165.946413 241.728608-304.235091V120.087952a27.657736 27.657736 0 0 0-24.338807-28.487468z" fill="#696969" p-id="15086"></path><path d="M461.140072 348.817424a88.781331 88.781331 0 1 0 88.781331 88.781331 89.611063 89.611063 0 0 0-88.781331-88.781331z m0 129.438203a40.933449 40.933449 0 1 1 40.656871-40.656872 40.933449 40.933449 0 0 1-40.656871 40.656872z" fill="#0066F3" p-id="15087"></path><path d="M660.828922 398.877926a34.572169 34.572169 0 0 0-32.636128-30.700087 35.678479 35.678479 0 0 1-34.572169-34.572169c0-4.14866 1.936041-10.233362 1.936041-12.169404a35.678479 35.678479 0 0 0-12.169403-44.528954c0-1.936041-2.212619-1.936041-2.212619-1.936041L532.497029 249.249576a40.933449 40.933449 0 0 0-42.86949 8.020744c-8.297321 6.084702-20.466724 16.318064-27.657735 16.318064a53.102852 53.102852 0 0 1-27.657736-18.254106A40.933449 40.933449 0 0 0 391.719155 249.249576h-1.936041l-48.954192 27.657736a1.936041 1.936041 0 0 0-1.936042 1.936042 35.678479 35.678479 0 0 0-12.44598 45.082108c0 1.936041 2.212619 8.020743 2.212618 12.169404a33.46586 33.46586 0 0 1-34.848746 34.572169 34.295592 34.295592 0 0 0-32.359551 30.700087 359.550562 359.550562 0 0 0-4.14866 38.72083 368.954192 368.954192 0 0 0 4.14866 38.720829 34.295592 34.295592 0 0 0 32.359551 30.423509 34.572169 34.572169 0 0 1 34.848746 34.57217c0 4.14866-2.212619 10.233362-2.212618 12.445981a37.891098 37.891098 0 0 0 12.44598 44.805531 1.936041 1.936041 0 0 0 1.936042 1.936042l48.954192 27.657735a34.295592 34.295592 0 0 0 42.86949-8.29732 49.507347 49.507347 0 0 1 27.657735-18.254106 68.314607 68.314607 0 0 1 27.657736 18.254106 36.508211 36.508211 0 0 0 27.657735 12.445981 66.93172 66.93172 0 0 0 16.318064-4.148661h1.936042l48.954192-27.657735c0-1.936041 2.212619-1.936041 2.212619-1.936042a38.167675 38.167675 0 0 0 14.658599-47.571305 21.573034 21.573034 0 0 1-4.14866-12.445981 33.189283 33.189283 0 0 1 34.57217-34.572169 32.359551 32.359551 0 0 0 30.700086-27.657736 306.724287 306.724287 0 0 0 3.318928-41.210026c0-14.382022-3.318928-34.848747-3.318928-38.720829z m-100.39758 156.81936a10.786517 10.786517 0 0 1-1.936041 7.467589l-43.146068 24.338807h-1.659464a7.191011 7.191011 0 0 1-5.808124-1.936042 81.313742 81.313742 0 0 0-46.741573-25.998271 82.973207 82.973207 0 0 0-48.954192 25.998271 17.147796 17.147796 0 0 1-5.531547 1.936042h-1.936042l-41.210026-24.338807a5.808124 5.808124 0 0 1-1.936041-7.467589 47.01815 47.01815 0 0 0 5.808124-22.402766 58.910977 58.910977 0 0 0-60.017286-58.357822 7.467589 7.467589 0 0 1-2.765774-4.425237 178.392394 178.392394 0 0 1-3.872083-31.806396 175.350043 175.350043 0 0 1 3.872083-32.912705 14.935177 14.935177 0 0 0 1.936042-5.808125h1.659464a58.357822 58.357822 0 0 0 58.357822-58.081245 55.315471 55.315471 0 0 0-5.808124-22.402765c-1.659464-1.936041 0-5.808124 1.936041-7.744166l43.146067-24.338807a23.509075 23.509075 0 0 1 11.339672 1.936041 67.208297 67.208297 0 0 0 44.805532 24.338807 73.292999 73.292999 0 0 0 45.082108-24.338807 19.636992 19.636992 0 0 1 5.808125-1.936041h1.659464l43.146067 24.338807a11.616249 11.616249 0 0 1 1.936042 7.744166 57.52809 57.52809 0 0 0-5.531547 22.402765 58.910977 58.910977 0 0 0 60.017286 58.081245 9.40363 9.40363 0 0 1 1.659464 5.808125 226.240277 226.240277 0 0 1 3.872083 31.806395c0 11.063094-3.872083 27.657736-3.872083 31.806396s-1.659464 5.531547-3.595506 5.531547a58.357822 58.357822 0 0 0-58.081244 58.357822 55.315471 55.315471 0 0 0 6.361279 22.402766z" fill="#696969" p-id="15088"></path></svg>