<?xml version="1.0" standalone="no"?><!DOCTYPE svg PUBLIC "-//W3C//DTD SVG 1.1//EN" "http://www.w3.org/Graphics/SVG/1.1/DTD/svg11.dtd"><svg t="1601020543531" class="icon" viewBox="0 0 1024 1024" version="1.1" xmlns="http://www.w3.org/2000/svg" p-id="14789" xmlns:xlink="http://www.w3.org/1999/xlink" width="200" height="200"><defs><style type="text/css"></style></defs><path d="M821.895952 549.184293c0 10.513299 1.659995 21.026597 1.659994 31.816562A380.69208 380.69208 0 1 1 289.037705 232.955333l29.049905-76.359748A442.66521 442.66521 0 1 0 885.529076 581.000855a451.79518 451.79518 0 0 0-8.576639-87.149714z" fill="#696969" p-id="14790"></path><path d="M880.272426 399.784784a27.666576 27.666576 0 0 0-26.283247-26.006581 27.666576 27.666576 0 0 0-19.366602 8.853304l-200.859339 196.709353-93.789692-104.579656a27.666576 27.666576 0 0 0-19.089937-7.746641 27.666576 27.666576 0 0 0-27.666576 27.666576 25.729915 25.729915 0 0 0 8.023307 18.813271l102.919662 116.752949a36.243214 36.243214 0 0 0 27.666575 12.449959h1.383329a37.626543 37.626543 0 0 0 26.283247-10.789964l212.202635-211.925969a25.729915 25.729915 0 0 0 8.576638-20.196601z" fill="#0066F3" p-id="14791"></path><path d="M647.043194 265.601893a19.089937 19.089937 0 0 0 17.153277-9.683302 17.706608 17.706608 0 0 0 0-18.813271 18.813271 18.813271 0 0 0-16.32328-9.406636h-62.249795l49.246505-49.52317a18.536606 18.536606 0 0 0 7.193309-19.366603 19.089937 19.089937 0 0 0-14.663285-14.38662 18.813271 18.813271 0 0 0-19.366603 7.469976l-49.246504 48.969839-49.246505-48.969839a19.366603 19.366603 0 0 0-18.813271-5.809981 18.813271 18.813271 0 0 0-14.109954 13.833288 19.089937 19.089937 0 0 0 5.809981 18.813271l49.52317 48.969839H470.530441a18.813271 18.813271 0 0 0-19.089937 18.813271 19.089937 19.089937 0 0 0 19.089937 19.089938h69.166439V304.335098H470.530441a19.089937 19.089937 0 1 0 0 37.903209h69.166439v56.71648a19.089937 19.089937 0 0 0 19.089938 19.089937 18.813271 18.813271 0 0 0 18.813271-19.089937v-57.823143h69.443105a18.536606 18.536606 0 0 0 18.813271-18.813271 18.813271 18.813271 0 0 0-18.813271-19.089938h-69.443105V265.601893z m0 0" fill="#696969" p-id="14792"></path><path d="M749.132858 16.879378A58.929806 58.929806 0 0 0 707.90966 0.002767H409.663975a57.823143 57.823143 0 0 0-58.376474 57.546477v518.748293a56.993146 56.993146 0 0 0 17.153276 40.946532 58.376475 58.376475 0 0 0 41.223198 16.876611h67.78311c17.429943 0 31.26323-7.746641 31.263231-29.603236 0-14.939951-8.023307-22.963258-31.263231-22.963258h-55.333151a13.279956 13.279956 0 0 1-13.556622-13.00329V79.129173a13.279956 13.279956 0 0 1 13.556622-13.279956h273.345767a13.279956 13.279956 0 0 1 13.556622 13.279956v331.445576a27.666576 27.666576 0 0 0 55.333151 0V57.549244a56.71648 56.71648 0 0 0-15.216616-40.669866z" fill="#696969" p-id="14793"></path></svg>