<?xml version="1.0" standalone="no"?><!DOCTYPE svg PUBLIC "-//W3C//DTD SVG 1.1//EN" "http://www.w3.org/Graphics/SVG/1.1/DTD/svg11.dtd"><svg t="1601020551634" class="icon" viewBox="0 0 1024 1024" version="1.1" xmlns="http://www.w3.org/2000/svg" p-id="14936" xmlns:xlink="http://www.w3.org/1999/xlink" width="200" height="200"><defs><style type="text/css"></style></defs><path d="M821.895784 549.184549c0 10.513293 1.659994 21.026586 1.659994 31.816545A380.691875 380.691875 0 1 1 289.037826 232.955761l29.049889-76.359708A442.664971 442.664971 0 1 0 885.528874 581.001094a451.794936 451.794936 0 0 0-8.576634-87.149666z" fill="#696969" p-id="14937"></path><path d="M608.863267 72.489709c-82.999682 41.499841-124.222857 88.256329-124.222857 138.332803v248.999046c0 51.183137 41.499841 107.622921 124.222857 168.489355 82.999682-60.866433 123.946192-117.306217 123.946192-168.489355v-248.999046c0-51.183137-41.223175-97.939625-123.946192-138.332803z m0-55.333121q173.469335 87.702997 173.746001 195.325918v248.999046q0 107.899587-173.746001 224.375807-173.746001-116.47622-173.746001-224.375807v-248.999046q0-107.899587 173.746001-195.325918z m0 0" fill="#696969" p-id="14938"></path><path d="M482.980416 181.772624h250.105709v46.203156h-250.105709zM482.980416 271.41228h250.105709v130.586166h-250.105709z" fill="#0066F3" p-id="14939"></path><path d="M359.864221 286.075557a73.03972 73.03972 0 0 0 76.636373 69.443068v-138.332804A73.316386 73.316386 0 0 0 359.864221 286.075557z m122.83953 108.729584l-17.983265 4.149984a139.716131 139.716131 0 0 1-27.666561 3.043321 119.519542 119.519542 0 0 1-123.116195-115.922889 119.519542 119.519542 0 0 1 123.116195-115.646223 122.562864 122.562864 0 0 1 27.666561 3.043321l17.983265 3.873319z m375.435228-108.729584a73.03972 73.03972 0 0 1-76.636373 69.443068v-138.332804a73.316386 73.316386 0 0 1 76.636373 69.443067z m-122.83953 108.729584l17.983265 4.149984a139.716131 139.716131 0 0 0 27.666561 3.043321 119.796208 119.796208 0 0 0 123.116194-115.922889 119.796208 119.796208 0 0 0-123.116194-115.646223 122.562864 122.562864 0 0 0-27.666561 3.043321l-17.983265 3.873319z m0 0M451.163871 8.303288a20.196589 20.196589 0 0 1 32.646542 0l49.246478 48.969813a20.473255 20.473255 0 0 1 0 32.923207 20.473255 20.473255 0 0 1-32.646542 0L451.163871 40.94983a20.473255 20.473255 0 0 1 0-32.646542z m0 0M761.306016 8.303288a20.473255 20.473255 0 0 0-32.923207 0l-48.969812 48.969813a20.473255 20.473255 0 0 0 0 32.923207 20.473255 20.473255 0 0 0 32.646541 0l49.246478-49.246478a20.473255 20.473255 0 0 0 0-32.646542z m0 0" fill="#696969" p-id="14940"></path><path d="M680.242994 478.358154v11.34329a162.126046 162.126046 0 0 1-70.273064 55.333121 204.732549 204.732549 0 0 1-74.146383-55.333121v-11.34329z m0 0" fill="#666666" p-id="14941"></path></svg>