<?xml version="1.0" standalone="no"?><!DOCTYPE svg PUBLIC "-//W3C//DTD SVG 1.1//EN" "http://www.w3.org/Graphics/SVG/1.1/DTD/svg11.dtd"><svg t="1601020461918" class="icon" viewBox="0 0 1024 1024" version="1.1" xmlns="http://www.w3.org/2000/svg" p-id="12211" xmlns:xlink="http://www.w3.org/1999/xlink" width="200" height="200"><defs><style type="text/css"></style></defs><path d="M888.839653 249.589887h-127.446155c-30.410145 0-37.874454-8.01722-21.840014-33.174704 32.621792-53.355983 59.714468-108.647156 93.442084-160.344404 29.857234-45.338762 9.952411-55.291174-38.980278-55.291173h-260.144972a68.008144 68.008144 0 0 0-71.049158 36.76863c-50.591424 114.176274-101.182848 228.076091-149.562624 343.358188-14.099249 34.280528 5.805573 52.526615 47.826865 51.973703s89.01879 0 133.251728 0c35.662807 0 44.785851 11.058235 33.727616 41.468381-22.392925 59.990923-42.297748 120.534759-61.373203 181.631505-6.358485 20.73419-17.693176 47.826865 8.017221 61.649659s48.932689-9.675955 63.308393-25.43394c125.78742-133.251728 248.810281-266.779913 373.215422-401.690377 23.498749-24.604572 15.481529-41.744836-22.392925-42.850659zM572.850596 581.336929c-17.140264-37.321542 6.358485-68.561055 12.164058-92.889172C602.70783 416.845687 581.144272 387.817821 498.207511 387.817821c-120.534759-1.935191-126.063876-7.187853-82.93676-106.435509 27.645587-59.438012 55.291174-121.08767 78.513467-182.184417a76.854731 76.854731 0 0 1 84.871951-51.420792 1382.279341 1382.279341 0 0 0 139.610214 0c30.963057 0 50.038512 10.505323 30.410145 39.809645s-39.533189 65.520041-58.608644 98.971201c-41.191924 72.154982-22.392925 104.500318 67.178776 107.541333 16.03444 0 43.680027 1.935191 69.943335 3.593926-80.725114 91.230436-173.890741 191.307461-254.339399 280.602706z m0 0" fill="#696969" p-id="12212"></path><path d="M466.415087 336.39703a27.645587 27.645587 0 0 1-14.375706-35.939263l84.31904-193.519108a27.645587 27.645587 0 1 1 50.314968 21.287102l-84.31904 193.519107a27.645587 27.645587 0 0 1-35.939262 14.375706z m0 0" fill="#0066F3" p-id="12213"></path><path d="M821.660877 549.544504c0 10.505323 1.658735 21.010646 1.658735 31.792425A380.403275 380.403275 0 1 1 289.206875 233.555447l29.027866-76.30182A442.329389 442.329389 0 1 0 885.245727 581.336929a451.452433 451.452433 0 0 0-8.570132-87.083599z" fill="#696969" p-id="12214"></path></svg>