<?xml version="1.0" standalone="no"?><!DOCTYPE svg PUBLIC "-//W3C//DTD SVG 1.1//EN" "http://www.w3.org/Graphics/SVG/1.1/DTD/svg11.dtd"><svg t="1601185955810" class="icon" viewBox="0 0 1024 1024" version="1.1" xmlns="http://www.w3.org/2000/svg" p-id="4203" xmlns:xlink="http://www.w3.org/1999/xlink" width="200" height="200"><defs><style type="text/css"></style></defs><path d="M512 68.160597a33.919979 33.919979 0 0 1 23.999985 9.919994l92.479942 92.479942a67.839958 67.839958 0 0 0 47.99997 19.839988h127.99992A34.239979 34.239979 0 0 1 838.079796 224.0005v127.99992a67.839958 67.839958 0 0 0 19.839988 47.99997l87.999945 87.999945a33.919979 33.919979 0 0 1 0 47.99997l-87.999945 87.999945a67.839958 67.839958 0 0 0-19.839988 47.99997v131.839918a34.239979 34.239979 0 0 1-34.239978 34.239978H671.9999a67.839958 67.839958 0 0 0-47.99997 19.839988l-87.999945 87.999945a33.919979 33.919979 0 0 1-47.99997 0l-87.999945-87.999945a67.839958 67.839958 0 0 0-47.99997-19.839988H224.00018a34.239979 34.239979 0 0 1-31.99998-34.239978v-127.99992a67.839958 67.839958 0 0 0-19.839988-47.99997l-94.079941-91.839943a33.919979 33.919979 0 0 1 0-47.99997l92.479942-92.479942a67.839958 67.839958 0 0 0 21.439987-47.99997V224.0005a34.239979 34.239979 0 0 1 31.99998-31.99998h122.879923a67.839958 67.839958 0 0 0 47.99997-19.839988l92.479942-92.479942a33.919979 33.919979 0 0 1 24.639985-11.519993M512 0.00064a101.119937 101.119937 0 0 0-72.319955 30.079981l-92.159942 92.159943H224.00018A102.399936 102.399936 0 0 0 122.240244 224.0005v122.879923l-92.159943 92.799942a102.079936 102.079936 0 0 0 0 144.63991l92.159943 92.159942v127.99992A102.399936 102.399936 0 0 0 224.00018 906.240074h127.99992l87.679945 87.679945a102.079936 102.079936 0 0 0 144.63991 0L671.9999 906.240074h131.839918a102.399936 102.399936 0 0 0 102.399936-102.399936V672.00022l87.679945-87.679945a102.079936 102.079936 0 0 0 0-144.63991L906.239754 352.00042V224.0005a102.399936 102.399936 0 0 0-102.399936-102.399936h-127.99992L584.319955 30.080621A101.119937 101.119937 0 0 0 512 0.00064z m0 0" fill="#ffffff" p-id="4204"></path><path d="M314.560123 519.360315l103.679936 76.799952a22.399986 22.399986 0 0 0 28.799982 0l270.079831-250.239843a22.719986 22.719986 0 0 1 24.319985-4.159998l5.439996 2.239999a15.039991 15.039991 0 0 1 7.999995 19.839988l-2.559998 3.839997-296.959815 344.639785a22.719986 22.719986 0 0 1-31.99998 2.559998l-1.919998-1.919999-148.159908-159.9999a19.199988 19.199988 0 0 1 0-26.879983 17.279989 17.279989 0 0 1 5.119997-3.199998l12.159992-5.439996a23.359985 23.359985 0 0 1 22.719986 2.559998z m0 0" fill="#ffffff" p-id="4205"></path></svg>