<?xml version="1.0" standalone="no"?><!DOCTYPE svg PUBLIC "-//W3C//DTD SVG 1.1//EN" "http://www.w3.org/Graphics/SVG/1.1/DTD/svg11.dtd"><svg t="1603335592259" class="icon" viewBox="0 0 1024 1024" version="1.1" xmlns="http://www.w3.org/2000/svg" p-id="1321" xmlns:xlink="http://www.w3.org/1999/xlink" width="200" height="200"><defs><style type="text/css"></style></defs><path d="M263.36 561.6s113.28 34.88 192 10.88c55.36-16.64 128-41.28 157.76-70.72s24-55.04 0-51.52c-47.04 7.36-228.8 24.96-278.08 9.28S260.48 384 281.92 348.16a1553.28 1553.28 0 0 0 213.12-37.12c149.12-33.6 186.24-56.96 250.56-27.84a1716.8 1716.8 0 0 0 265.28 115.2A512 512 0 0 0 4.16 450.24a1327.36 1327.36 0 0 1 259.2 111.36zM829.12 710.4c-64-8.64-354.88 68.16-435.84 74.24S220.8 704 160 672c-32-17.28-99.52-60.48-156.8-96a512 512 0 0 0 964.48 165.76c-46.72-10.88-103.68-26.88-138.56-31.36z" fill="#FF0000" p-id="1322"></path></svg>