<svg id="图层_1" data-name="图层 1" xmlns="http://www.w3.org/2000/svg" viewBox="0 0 716.8 716.8"><defs><style>.cls-1{fill:#d81e06;}</style></defs><title>diyazhiyacopy</title><path class="cls-1" d="M358.4,0C160.77,0,0,160.77,0,358.4S160.77,716.8,358.4,716.8,716.8,556,716.8,358.4,556,0,358.4,0ZM496.65,539.84q-8.65,3.2-22.1,6.65T444.5,552.7q-16.62,2.74-34.23,4.48t-35,1.73q-52,0-90.87-14t-64.72-39.44A161.52,161.52,0,0,1,181,444.93q-12.85-35.1-12.85-77.57A236.66,236.66,0,0,1,174.94,310a200.47,200.47,0,0,1,19.93-50.57,194.83,194.83,0,0,1,31.93-42,190.15,190.15,0,0,1,42.9-32.08A216.6,216.6,0,0,1,322.58,165a257.29,257.29,0,0,1,61.68-7.08,352.84,352.84,0,0,1,55.48,4.19q26.28,4.18,43.05,10.25v60.1a317.86,317.86,0,0,0-45.51-11,287.3,287.3,0,0,0-46.37-3.76A181.1,181.1,0,0,0,332,227.08a133.75,133.75,0,0,0-47.53,27.74A129.66,129.66,0,0,0,252.8,300q-11.55,26.86-11.55,62.12.27,68.47,35.82,102.71t100.84,34.24q12.13,0,25.13-1.3a226.36,226.36,0,0,0,22.83-3.33V404.05H339.19V344.82H496.65Z"/></svg>