<svg id="图层_1" data-name="图层 1" xmlns="http://www.w3.org/2000/svg" viewBox="0 0 716.8 716.8"><defs><style>.cls-1{fill:#d81e06;}</style></defs><title>diyazhiyacopy</title><path class="cls-1" d="M460.13,408.47h51V331.85h-51Zm0-127.79h51V204.06h-51ZM357.66,408.47h51.27V331.85H357.66Zm0-127.79h51.27V204.06H357.66Zm0,0"/><path class="cls-1" d="M171.9,411.47l.21-52.74,32.51-8.42V280H178.43v-51.2h26.22V152.47h51.2v76.34h25V280h-25V337.1l25-6.47v52.83l-25,6.43v93.26c0,32.13-22.58,59.44-53.69,65a159,159,0,0,1-27.46,2.36h-3l.92-51.2a105.55,105.55,0,0,0,20.61-1.59,14.47,14.47,0,0,0,11.45-14.59v-80.1l-32.72,8.45Zm390.43,74.29h-51.2V459.67h-51V562.25h-51.2V459.67H357.63v26.12h-51.2v-333h255.9ZM358.4,0C160.77,0,0,160.77,0,358.4S160.77,716.8,358.4,716.8,716.8,556,716.8,358.4,556,0,358.4,0Zm0,0"/></svg>