<?xml version="1.0" standalone="no"?><!DOCTYPE svg PUBLIC "-//W3C//DTD SVG 1.1//EN" "http://www.w3.org/Graphics/SVG/1.1/DTD/svg11.dtd"><svg t="1603336242176" class="icon" viewBox="0 0 1036 1024" version="1.1" xmlns="http://www.w3.org/2000/svg" p-id="1461" xmlns:xlink="http://www.w3.org/1999/xlink" width="202.34375" height="200"><defs><style type="text/css"></style></defs><path d="M461.95653 680.177836c3.189445-11.163057 17.223003-40.505951 10.206224-50.393229s-55.815286-3.827334-68.573066-3.827334H220.196605a22.964004 22.964004 0 0 1-19.455615-34.127061Q411.882245 301.909668 621.428777 12.308068a510.311189 510.311189 0 0 0-251.328261 988.727928q45.609063-161.385913 91.856014-320.85816zM680.433508 26.979515Q656.831616 110.861916 633.867612 194.744318c-13.076724 45.928007-25.834504 91.53707-38.592284 137.465077-4.465223 15.62828-21.050337 48.798507-15.947224 66.659399 26.153448 15.947225 100.78646 2.551556 127.577797 2.551556h124.388352a22.964004 22.964004 0 0 1 19.455614 34.446005L430.062081 1014.112721A510.311189 510.311189 0 0 0 680.433508 26.979515z" fill="#FF0000" p-id="1462"></path></svg>