<?xml version="1.0" standalone="no"?><!DOCTYPE svg PUBLIC "-//W3C//DTD SVG 1.1//EN" "http://www.w3.org/Graphics/SVG/1.1/DTD/svg11.dtd"><svg t="1603102677161" class="icon" viewBox="0 0 1024 1024" version="1.1" xmlns="http://www.w3.org/2000/svg" p-id="3390" xmlns:xlink="http://www.w3.org/1999/xlink" width="200" height="200"><defs><style type="text/css"></style></defs><path d="M294.886257 22.744928a250.808931 250.808931 0 1 0 250.808931 250.501567A250.501567 250.501567 0 0 0 294.886257 22.744928z m0 420.473796a169.972229 169.972229 0 1 1 169.972229-169.972229 169.972229 169.972229 0 0 1-169.972229 169.972229zM859.513716 198.557071a153.681943 153.681943 0 1 0 103.58163 193.02452 155.526127 155.526127 0 0 0-103.58163-193.02452z m-67.620055 223.760909A78.685155 78.685155 0 1 1 889.942741 368.836664a78.377791 78.377791 0 0 1-98.04908 53.481316z" fill="#000000" p-id="3391"></path><path d="M712.593778 463.812105l-198.249706-185.03306 11.065099-93.438621 272.324404 253.88257-85.139797 24.589111zM731.342975 590.75339c-22.1302 104.811085-127.863377 319.965806-450.902821 289.536781 0 0-109.728907-225.912457 73.767333-388.815317a182.266785 182.266785 0 0 1-81.758794 13.524011c-9.52828 0-30.736389-12.909283-38.420486-13.524011a435.841991 435.841991 0 0 0-10.450372 456.435372S699.377131 1061.942228 817.404864 614.727773z" fill="#000000" p-id="3392"></path><path d="M925.289588 142.002116m-38.72785 0a38.72785 38.72785 0 1 0 77.455699 0 38.72785 38.72785 0 1 0-77.455699 0Z" fill="#000000" p-id="3393"></path><path d="M937.276779 164.747043l-26.433294-58.706502a153.681943 153.681943 0 0 0-89.750255 98.04908v5.839913L891.172196 245.891109a83.910341 83.910341 0 0 1 3.073639-20.900744 77.455699 77.455699 0 0 1 44.567764-48.25613z" fill="#000000" p-id="3394"></path><path d="M774.681283 599.666942m-44.567763 0a44.567764 44.567764 0 1 0 89.135527 0 44.567764 44.567764 0 1 0-89.135527 0Z" fill="#000000" p-id="3395"></path><path d="M482.685591 675.278458m-39.035213 0a39.035214 39.035214 0 1 0 78.070427 0 39.035214 39.035214 0 1 0-78.070427 0Z" fill="#000000" p-id="3396"></path><path d="M506.967338 659.295536c0-3.381003 2.766275-6.147278 6.762006-7.991461a555.099179 555.099179 0 0 0-211.15899-132.781199c-11.0651 27.048022-26.12593 59.628594-35.039483 78.685155A430.309441 430.309441 0 0 1 457.789116 706.936939l56.554956-38.113122c-4.917822-3.073639-7.376733-5.839914-7.376734-9.528281z" fill="#000000" p-id="3397"></path><path d="M352.978031 787.158913m-39.342577 0a39.342577 39.342577 0 1 0 78.685155 0 39.342577 39.342577 0 1 0-78.685155 0Z" fill="#000000" p-id="3398"></path><path d="M334.228834 811.748024h10.757736l35.039483-52.866588a528.973249 528.973249 0 0 0-184.418332-107.884725c-5.53255 13.524011-11.987192 28.584841-18.441833 42.723581A79.299883 79.299883 0 0 1 190.689899 737.673327a435.227263 435.227263 0 0 1 138.621113 79.914611z" fill="#000000" p-id="3399"></path></svg>