<?xml version="1.0" standalone="no"?><!DOCTYPE svg PUBLIC "-//W3C//DTD SVG 1.1//EN" "http://www.w3.org/Graphics/SVG/1.1/DTD/svg11.dtd"><svg t="1603445320357" class="icon" viewBox="0 0 1024 1024" version="1.1" xmlns="http://www.w3.org/2000/svg" p-id="1929" xmlns:xlink="http://www.w3.org/1999/xlink" width="200" height="200"><defs><style type="text/css"></style></defs><path d="M907.84 64L512 458.88 115.84 64A37.44 37.44 0 0 0 64 116.16L458.56 512 64 908.16A37.44 37.44 0 1 0 115.84 960L512 565.44 907.84 960A37.76 37.76 0 0 0 960 960a37.44 37.44 0 0 0 0-53.12L565.12 512 960 116.16A37.44 37.44 0 0 0 960 64a37.76 37.76 0 0 0-53.44 0z m0 0" fill="#ff5104" p-id="1930"></path></svg>