<?xml version="1.0" standalone="no"?><!DOCTYPE svg PUBLIC "-//W3C//DTD SVG 1.1//EN" "http://www.w3.org/Graphics/SVG/1.1/DTD/svg11.dtd"><svg t="1603442073053" class="icon" viewBox="0 0 1024 1024" version="1.1" xmlns="http://www.w3.org/2000/svg" p-id="1742" xmlns:xlink="http://www.w3.org/1999/xlink" width="200" height="200"><defs><style type="text/css"></style></defs><path d="M937.6 808.96zM789.12 119.68a32 32 0 0 0-17.6-6.4 32 32 0 0 0-29.76 32 32 32 0 0 0 16.96 28.48 393.92 393.92 0 0 1 182.4 336.64 395.2 395.2 0 0 1-182.4 336.96 33.92 33.92 0 0 0-17.6 28.8 32 32 0 0 0 29.76 32 32 32 0 0 0 17.28-6.08 457.6 457.6 0 0 0 211.84-391.04 458.24 458.24 0 0 0-210.88-390.4z m0 0" fill="#ff4e00" p-id="1743"></path><path d="M823.68 510.08a268.8 268.8 0 0 0-124.16-229.12 44.16 44.16 0 0 0-16.96-5.44 32 32 0 0 0-29.76 32 32 32 0 0 0 14.72 27.84 207.68 207.68 0 0 1-2.88 352 32 32 0 0 0-14.4 27.2 32 32 0 0 0 29.76 32 39.36 39.36 0 0 0 15.36-4.48 267.52 267.52 0 0 0 128-231.68z m0 0M522.24 34.56L283.52 272.96H43.84v477.76h238.4l240 238.72h79.68V34.56zM282.24 672H124.16V352h160l238.72-239.04v796.8z m0 0" fill="#ff4e00" p-id="1744"></path></svg>