<?xml version="1.0" encoding="utf-8"?>
<!-- Generator: Adobe Illustrator 23.0.0, SVG Export Plug-In . SVG Version: 6.00 Build 0)  -->
<svg version="1.1" id="图层_1" xmlns="http://www.w3.org/2000/svg" xmlns:xlink="http://www.w3.org/1999/xlink" x="0px" y="0px"
	 viewBox="0 0 32 32" style="enable-background:new 0 0 32 32;" xml:space="preserve">
<style type="text/css">
	.st0{fill:url(#SVGID_1_);}
	.st1{fill:#FFFFFF;}
</style>
<linearGradient id="SVGID_1_" gradientUnits="userSpaceOnUse" x1="3.1586" y1="27.7907" x2="21.4919" y2="10.9574">
	<stop  offset="0" style="stop-color:#21919D"/>
	<stop  offset="1" style="stop-color:#47B3BD"/>
</linearGradient>
<circle class="st0" cx="16" cy="16" r="16"/>
<g>
	<g>
		<path class="st1" d="M23.7,4.51c-3.79-2.4-6.51,2.88-6.57,3.04c-0.68,1.32-1.23,3.34-1.58,4.84l-4.95-0.73l-0.2,1.33l4.88,0.72
			c-0.14,0.7-0.2,1.15-0.2,1.15l-0.24,1.47l0.01,0l-0.01,0.09L9.99,15.7l-0.18,1.33l4.78,0.7c-1.26,6.34-2.19,8.26-3.12,9.31
			c-0.19,0.22-1.53,1.12-2.21-0.48c-0.47-1.12-1.37-0.97-1.37-0.97c-0.25-0.02-1.43,0.73,0.41,1.9c3.79,2.4,6.5-2.88,6.57-3.04
			c0.68-1.32,1.58-4.88,1.92-6.39l4.97,0.73l0.19-1.33l-4.9-0.72c0.14-0.7,0.2-1.15,0.2-1.15l0.24-1.47l-0.01,0l0.02-0.09l4.84,0.71
			l0.18-1.33l-4.78-0.7c1.26-6.34,1.84-6.71,2.78-7.76c0.19-0.22,1.53-1.12,2.21,0.48c0.47,1.12,1.37,0.97,1.37,0.97
			C24.36,6.43,25.54,5.67,23.7,4.51"/>
	</g>
</g>
</svg>
