<?xml version="1.0" standalone="no"?><!DOCTYPE svg PUBLIC "-//W3C//DTD SVG 1.1//EN" "http://www.w3.org/Graphics/SVG/1.1/DTD/svg11.dtd"><svg t="1600930648541" class="icon" viewBox="0 0 1024 1024" version="1.1" xmlns="http://www.w3.org/2000/svg" p-id="5249" xmlns:xlink="http://www.w3.org/1999/xlink" width="200" height="200"><defs><style type="text/css"></style></defs><path d="M990.08 991.36H33.92l45.76-89.92h863.68l46.72 89.92zM512 35.2a279.04 279.04 0 1 0 279.04 279.04A278.72 278.72 0 0 0 512 35.2z m0 464a184.96 184.96 0 1 1 184.96-184.96A184.96 184.96 0 0 1 512 499.2z" fill="#0068F7" p-id="5250"></path><path d="M683.2 533.76A276.48 276.48 0 0 1 512 593.28a386.88 386.88 0 0 1 386.56 387.2v10.88h92.16v-10.88a480 480 0 0 0-307.52-446.72z" fill="#0068F7" p-id="5251"></path><path d="M274.56 627.2m-45.76 0a45.76 45.76 0 1 0 91.52 0 45.76 45.76 0 1 0-91.52 0Z" fill="#0068F7" p-id="5252"></path><path d="M248.64 590.08A525.76 525.76 0 0 0 32 992h93.44a433.6 433.6 0 0 1 176.96-328.32z" fill="#0068F7" p-id="5253"></path><path d="M517.44 315.2m-253.12 0a253.12 253.12 0 1 0 506.24 0 253.12 253.12 0 1 0-506.24 0Z" fill="#0068F7" p-id="5254"></path><path d="M164.8 729.28s-24.96-38.4 20.16-84.48a730.24 730.24 0 0 1 272.32-160c6.72-2.56 242.56 98.24 242.56 98.24l224 276.48-11.52 88.32-837.76-8.64z" fill="#0068F7" p-id="5255"></path><path d="M187.52 733.76l73.92-85.76a22.4 22.4 0 0 1 32 0c17.28 15.36 3.84 23.68 3.84 23.68l-77.76 87.68a22.08 22.08 0 0 1-32 11.84c-21.44-8 0-37.44 0-37.44z" fill="#FFFFFF" p-id="5256"></path><path d="M339.84 278.08m-20.48 0a20.48 20.48 0 1 0 40.96 0 20.48 20.48 0 1 0-40.96 0Z" fill="#FFFFFF" p-id="5257"></path><path d="M413.44 163.2m-20.8 0a20.8 20.8 0 1 0 41.6 0 20.8 20.8 0 1 0-41.6 0Z" fill="#FFFFFF" p-id="5258"></path><path d="M401.6 146.24A175.04 175.04 0 0 0 320 277.76h40.64a137.6 137.6 0 0 1 61.76-96V160a20.16 20.16 0 0 1-20.8-13.76z" fill="#FFFFFF" p-id="5259"></path></svg>