<?xml version="1.0" standalone="no"?><!DOCTYPE svg PUBLIC "-//W3C//DTD SVG 1.1//EN" "http://www.w3.org/Graphics/SVG/1.1/DTD/svg11.dtd"><svg t="1603102145286" class="icon" viewBox="0 0 1024 1024" version="1.1" xmlns="http://www.w3.org/2000/svg" p-id="3221" xmlns:xlink="http://www.w3.org/1999/xlink" width="200" height="200"><defs><style type="text/css"></style></defs><path d="M990.08 991.36H33.92l45.76-89.92h863.68l46.72 89.92zM512 35.2a279.04 279.04 0 1 0 279.04 279.04A278.72 278.72 0 0 0 512 35.2z m0 464a184.96 184.96 0 1 1 184.96-184.96A184.96 184.96 0 0 1 512 499.2z" fill="#000000" p-id="3222"></path><path d="M683.2 533.76A276.48 276.48 0 0 1 512 593.28a386.88 386.88 0 0 1 386.56 387.2v10.88h92.16v-10.88a480 480 0 0 0-307.52-446.72z" fill="#000000" p-id="3223"></path><path d="M274.56 627.2m-45.76 0a45.76 45.76 0 1 0 91.52 0 45.76 45.76 0 1 0-91.52 0Z" fill="#000000" p-id="3224"></path><path d="M248.64 590.08A525.76 525.76 0 0 0 32 992h93.44a433.6 433.6 0 0 1 176.96-328.32z" fill="#000000" p-id="3225"></path></svg>