<?xml version="1.0" standalone="no"?><!DOCTYPE svg PUBLIC "-//W3C//DTD SVG 1.1//EN" "http://www.w3.org/Graphics/SVG/1.1/DTD/svg11.dtd"><svg t="1603102131352" class="icon" viewBox="0 0 1024 1024" version="1.1" xmlns="http://www.w3.org/2000/svg" p-id="3051" xmlns:xlink="http://www.w3.org/1999/xlink" width="200" height="200"><defs><style type="text/css"></style></defs><path d="M377.28 513.6a248.96 248.96 0 0 0 248.96 248.96h257.92a354.24 354.24 0 0 0 70.4-101.12H622.08a148.16 148.16 0 1 1 0-296h332.48a354.24 354.24 0 0 0-70.4-101.12h-257.92a248.96 248.96 0 0 0-248.96 249.28z" fill="#000000" p-id="3052"></path><path d="M665.92 410.88A102.72 102.72 0 1 0 768 513.6a102.72 102.72 0 0 0-102.08-102.72z m-2.56 154.88a49.92 49.92 0 1 1 50.24-49.92 49.92 49.92 0 0 1-50.24 49.92z" fill="#000000" p-id="3053"></path><path d="M727.04 138.56m-48.32 0a48.32 48.32 0 1 0 96.64 0 48.32 48.32 0 1 0-96.64 0Z" fill="#000000" p-id="3054"></path><path d="M860.16 256m-48.32 0a48.32 48.32 0 1 0 96.64 0 48.32 48.32 0 1 0-96.64 0Z" fill="#000000" p-id="3055"></path><path d="M898.88 228.16a32 32 0 0 1-16.96 4.8 32 32 0 0 1-25.6-12.16l-48 48a384 384 0 1 1-107.84-89.28l56.32-79.36a482.88 482.88 0 1 0 142.08 128z" fill="#000000" p-id="3056"></path></svg>