<?xml version="1.0" standalone="no"?><!DOCTYPE svg PUBLIC "-//W3C//DTD SVG 1.1//EN" "http://www.w3.org/Graphics/SVG/1.1/DTD/svg11.dtd"><svg t="1600930641971" class="icon" viewBox="0 0 1024 1024" version="1.1" xmlns="http://www.w3.org/2000/svg" p-id="5095" xmlns:xlink="http://www.w3.org/1999/xlink" width="200" height="200"><defs><style type="text/css"></style></defs><path d="M514.24 514.56m-479.68 0a479.68 479.68 0 1 0 959.36 0 479.68 479.68 0 1 0-959.36 0Z" fill="#0068F7" p-id="5096"></path><path d="M663.36 565.76a49.92 49.92 0 1 1 50.24-49.92 49.92 49.92 0 0 1-50.24 49.92z" fill="#FFFFFF" p-id="5097"></path><path d="M727.04 138.56m-48.32 0a48.32 48.32 0 1 0 96.64 0 48.32 48.32 0 1 0-96.64 0Z" fill="#0068F7" p-id="5098"></path><path d="M415.68 514.88a278.08 218.24 0 1 0 556.16 0 278.08 218.24 0 1 0-556.16 0Z" fill="#FFFFFF" p-id="5099"></path><path d="M377.28 513.6a248.96 248.96 0 0 0 248.96 248.96h257.92a354.24 354.24 0 0 0 70.4-101.12H622.08a148.16 148.16 0 1 1 0-296h332.48a354.24 354.24 0 0 0-70.4-101.12h-257.92a248.96 248.96 0 0 0-248.96 249.28z" fill="#0068F7" p-id="5100"></path><path d="M898.88 228.16a32 32 0 0 1-16.96 4.8 32 32 0 0 1-25.6-12.16l-53.76 40.96a389.12 389.12 0 0 1 96 251.84 384 384 0 1 1-384-384 378.24 378.24 0 0 1 186.24 48.64l56.32-79.36a482.88 482.88 0 1 0 142.08 128z" fill="#0068F7" p-id="5101"></path><path d="M860.16 256m-48.32 0a48.32 48.32 0 1 0 96.64 0 48.32 48.32 0 1 0-96.64 0Z" fill="#0068F7" p-id="5102"></path><path d="M665.92 410.88A102.72 102.72 0 1 0 768 513.6a102.72 102.72 0 0 0-102.08-102.72z m-2.56 154.88a49.92 49.92 0 1 1 50.24-49.92 49.92 49.92 0 0 1-50.24 49.92z" fill="#0068F7" p-id="5103"></path><path d="M160.32 372.8m-20.48 0a20.48 20.48 0 1 0 40.96 0 20.48 20.48 0 1 0-40.96 0Z" fill="#FFFFFF" p-id="5104"></path><path d="M233.6 257.92m-20.8 0a20.8 20.8 0 1 0 41.6 0 20.8 20.8 0 1 0-41.6 0Z" fill="#FFFFFF" p-id="5105"></path><path d="M222.08 240.96a175.36 175.36 0 0 0-82.24 131.52h40.96a135.68 135.68 0 0 1 61.44-96v-23.04a19.52 19.52 0 0 1-20.16-12.48z" fill="#FFFFFF" p-id="5106"></path></svg>