<?xml version="1.0" standalone="no"?><!DOCTYPE svg PUBLIC "-//W3C//DTD SVG 1.1//EN" "http://www.w3.org/Graphics/SVG/1.1/DTD/svg11.dtd"><svg t="1600929870419" class="icon" viewBox="0 0 1024 1024" version="1.1" xmlns="http://www.w3.org/2000/svg" p-id="2187" xmlns:xlink="http://www.w3.org/1999/xlink" width="200" height="200"><defs><style type="text/css"></style></defs><path d="M412.8 563.2a214.72 214.72 0 1 0 0 428.8 214.72 214.72 0 1 0 0-429.44z m0 348.8a134.4 134.4 0 1 1 137.28-134.08 135.36 135.36 0 0 1-137.28 134.08z" fill="#0068F7" p-id="2188"></path><path d="M76.8 836.8m-42.56 0a42.56 42.56 0 1 0 85.12 0 42.56 42.56 0 1 0-85.12 0Z" fill="#0068F7" p-id="2189"></path><path d="M971.52 803.2s-275.84-269.12-320-308.48-26.24-46.72-26.24-46.72a69.44 69.44 0 0 0 9.6-76.48s86.4-75.2 128-114.88a54.72 54.72 0 0 0 9.6-76.48 1399.68 1399.68 0 0 0-128-128 71.04 71.04 0 0 0-89.28-7.68l-151.68 119.04c-39.36-35.52-96 0-96 0a1773.12 1773.12 0 0 0-171.84 160c-43.2 54.08 13.44 118.72 13.44 118.72-103.68 128-121.28 300.8-115.84 397.44 0 2.88 3.52 6.4 4.16 8.96a103.68 103.68 0 0 1 40-7.68 96 96 0 0 1 35.52 6.4c0-4.16 5.76-8.96 5.44-14.72A573.44 573.44 0 0 1 256 449.6c6.08-6.08-9.6-22.4-9.6-22.4s-32-35.52-40-44.48 17.6-23.36 17.6-23.36 124.8-116.16 132.8-123.2 16.64 3.84 16.64 3.84l38.72 32a14.72 14.72 0 0 0 20.16-3.84L576 131.84a12.8 12.8 0 0 1 16-7.04s80 70.4 83.52 78.4-7.68 13.76-7.68 13.76L521.28 352c-12.48 11.2-2.88 19.52-2.88 19.52s22.08 24.96 26.88 32-3.84 10.88-3.84 10.88a390.08 390.08 0 0 0-35.2 32A23.04 23.04 0 0 0 512 480s364.8 338.88 379.84 353.6 0 24.32 0 24.32l-28.16 32a22.08 22.08 0 0 1-30.08-5.12l-68.48-69.12c-2.88 0-55.04 50.88-55.04 50.88s35.52 45.76 84.48 93.44c56 53.76 96 19.84 96 19.84a861.12 861.12 0 0 0 89.28-85.76 59.52 59.52 0 0 0-8.32-90.88z" fill="#0068F7" p-id="2190"></path><path d="M735.68 843.52m-37.76 0a37.76 37.76 0 1 0 75.52 0 37.76 37.76 0 1 0-75.52 0Z" fill="#0068F7" p-id="2191"></path><path d="M56 806.08s-105.92 117.76 177.92 54.4l41.92-197.76 128-69.44 145.92 69.44 51.84 115.84h12.48l6.72-4.48 119.04 130.56 141.76 17.92c1.6 0 54.08-66.56 54.08-66.56l7.04-49.28-392.64-343.04 33.92-83.2s49.6-86.72 54.08-89.6 103.04-91.2 103.04-91.2l-138.24-126.4-184 143.04-76.8-16.64-179.2 170.56L160 489.28z" fill="#0068F7" p-id="2192"></path><path d="M189.76 356.8l74.24-85.44a21.76 21.76 0 0 1 32 0c17.6 15.04 4.16 23.68 4.16 23.68L221.76 384a21.76 21.76 0 0 1-30.08 11.84c-23.04-9.6-1.92-39.04-1.92-39.04z" fill="#FFFFFF" p-id="2193"></path></svg>