<svg id="图层_1" data-name="图层 1" xmlns="http://www.w3.org/2000/svg" viewBox="0 0 764.21 764.21"><defs><style>.cls-1{fill:#0068f7;}</style></defs><title>shijian</title><path class="cls-1" d="M420.06-83.72C209-83.7,38,87.37,38,298.38S209.07,680.49,420.11,680.49s382.1-171.08,382.1-382.11a382.1,382.1,0,0,0-382.15-382Zm0,713.32C239.4,626.42,94.61,479.06,94.61,298.38S239.4-29.65,420.06-32.83C600.71-29.65,745.5,117.7,745.5,298.38s-144.79,328-325.44,331.22ZM585.69,323.83H420.06V158.25a12.8,12.8,0,0,0-12.7-12.75h-25.5a12.8,12.8,0,0,0-12.7,12.75V362a12.8,12.8,0,0,0,12.7,12.75H585.64A12.79,12.79,0,0,0,598.43,362V336.58a12.68,12.68,0,0,0-12.79-12.75Zm0,0" transform="translate(-38 83.72)"/></svg>