<?xml version="1.0" standalone="no"?><!DOCTYPE svg PUBLIC "-//W3C//DTD SVG 1.1//EN" "http://www.w3.org/Graphics/SVG/1.1/DTD/svg11.dtd"><svg t="1600930083173" class="icon" viewBox="0 0 1024 1024" version="1.1" xmlns="http://www.w3.org/2000/svg" p-id="2730" xmlns:xlink="http://www.w3.org/1999/xlink" width="200" height="200"><defs><style type="text/css"></style></defs><path d="M337.929084 284.510912l-203.829362 189.430114H0.026719v204.469329a79.995825 79.995825 0 0 0 79.675842 79.995826h264.946173L480.00167 882.879685V233.953551c0-43.837712-72.316226-12.479349-140.472669 50.557361z m0 0" fill="#EE7C3D" p-id="2731"></path><path d="M586.876092 177.316506v666.525216l-173.110965-159.99165-29.758447-27.838548H102.101392v-290.86482H384.00668l29.438463-27.198581 173.110966-159.99165M669.111801 2.605624c-26.238631 0-74.556109 28.15853-120.633705 71.036293l-203.829362 189.110131H79.702561A80.315809 80.315809 0 0 0 0.026719 342.747873V678.410355a79.995825 79.995825 0 0 0 79.675842 79.995826h264.946173l203.829362 189.11013c46.077595 42.877762 94.395074 71.356276 120.633705 71.356277 12.479349 0 19.838965-6.399666 19.838964-20.798915V23.084555a17.919065 17.919065 0 0 0-19.838964-20.478931z m303.984136 559.33081H863.981631a51.197328 51.197328 0 0 1 0-102.394656h108.474339a51.197328 51.197328 0 0 1 0 102.394656zM971.49602 1023.99232a50.877345 50.877345 0 0 1-36.158113-15.039215L822.703785 895.999A51.197328 51.197328 0 0 1 895.979961 823.682774l112.634122 112.954105A51.197328 51.197328 0 0 1 971.49602 1023.99232zM863.981631 208.994853a50.557362 50.557362 0 0 1-47.037545-31.99833 51.197328 51.197328 0 0 1 11.839382-55.357111L935.017924 15.084973a50.877345 50.877345 0 0 1 72.316226 0 51.517311 51.517311 0 0 1 0 72.316226l-106.234456 106.554439a51.517311 51.517311 0 0 1-37.118063 15.039215z m0 0" fill="#333333" p-id="2732"></path></svg>