<?xml version="1.0" standalone="no"?><!DOCTYPE svg PUBLIC "-//W3C//DTD SVG 1.1//EN" "http://www.w3.org/Graphics/SVG/1.1/DTD/svg11.dtd"><svg t="1602734698236" class="icon" viewBox="0 0 1024 1024" version="1.1" xmlns="http://www.w3.org/2000/svg" p-id="4046" xmlns:xlink="http://www.w3.org/1999/xlink" width="200" height="200"><defs><style type="text/css"></style></defs><path d="M295.36 286.4h172.8v57.92h-172.8zM295.36 458.88h345.92v57.92H295.36zM295.36 630.4h172.8v59.2h-172.8z" fill="#0066F3" p-id="4047"></path><path d="M530.24 868.8H276.48a66.88 66.88 0 0 1-64-69.44V270.08a67.2 67.2 0 0 1 64-69.76h391.68v143.68h158.4v224a228.16 228.16 0 0 1 89.28 61.44v-297.6l-226.88-228.48H187.52a66.88 66.88 0 0 0-64 69.76V896a66.88 66.88 0 0 0 64 69.76h417.6a232.32 232.32 0 0 1-74.88-96.96z" fill="#252935" p-id="4048"></path><path d="M743.36 604.48a177.6 177.6 0 1 0 177.28 177.6 177.28 177.28 0 0 0-177.28-177.6z m77.44 160l-16 35.52h-40.32v15.68h53.76l-13.44 35.52h-40.32v32l-40.32 15.04v-47.68H672v-35.52h51.84V800H672v-36.48h45.76l-69.12-96h45.76l51.2 67.52 45.76-68.16h46.08l-67.2 97.6z" fill="#0066F3" p-id="4049"></path></svg>