<?xml version="1.0" standalone="no"?><!DOCTYPE svg PUBLIC "-//W3C//DTD SVG 1.1//EN" "http://www.w3.org/Graphics/SVG/1.1/DTD/svg11.dtd"><svg t="1602835208831" class="icon" viewBox="0 0 1024 1024" version="1.1" xmlns="http://www.w3.org/2000/svg" p-id="2343" xmlns:xlink="http://www.w3.org/1999/xlink" width="200" height="200"><defs><style type="text/css"></style></defs><path d="M512 512m-512 0a512 512 0 1 0 1024 0 512 512 0 1 0-1024 0Z" fill="#FFFFFF" p-id="2344"></path><path d="M456.362667 459.662222m-268.629334 0a268.629333 268.629333 0 1 0 537.258667 0 268.629333 268.629333 0 1 0-537.258667 0Z" fill="#E7F0FF" p-id="2345"></path><path d="M571.392 296.391111h-67.697778l13.084445-40.277333h-78.620445l-13.198222 40.277333h-40.96v171.804445h187.392z m-46.307556 141.425778h-87.722666v-40.277333h87.722666z m0-70.656h-87.722666v-40.391111h87.722666zM339.399111 336.782222l-21.276444-80.668444h-84.195556l21.390222 80.668444h84.081778zM625.777778 418.816v71.68a199.338667 199.338667 0 0 1 37.205333-3.527111c5.006222 0 9.784889 0 14.677333 0.568889v-110.478222h-31.971555a174.990222 174.990222 0 0 0 16.952889-40.277334h51.768889v121.514667a96.824889 96.824889 0 0 1-7.509334 34.133333 184.661333 184.661333 0 0 1 60.074667 25.713778 428.714667 428.714667 0 0 0 4.437333-59.505778V336.782222h9.784889v-30.378666h-112.071111a353.848889 353.848889 0 0 0 6.599111-50.289778h-65.536A609.848889 609.848889 0 0 1 580.266667 417.450667l10.353777 20.366222A261.688889 261.688889 0 0 0 625.777778 418.816zM492.430222 675.271111a58.481778 58.481778 0 0 1-19.911111 24.917333l9.898667 20.366223a101.034667 101.034667 0 0 0 27.648-3.754667 143.473778 143.473778 0 0 1-17.635556-41.528889zM508.359111 568.888889h-61.553778v-35.271111h91.022223a179.541333 179.541333 0 0 1 47.217777-30.378667h-68.266666V477.866667h-78.620445v25.144889h-68.949333v30.606222h24.576v55.523555q0 70.656-29.468445 111.047111l9.784889 20.366223c44.259556-17.521778 73.045333-74.296889 72.704-121.514667h48.128A145.976889 145.976889 0 0 1 508.359111 568.888889z" fill="#252935" p-id="2346"></path><path d="M528.725333 740.465778h-113.095111q-65.080889 0-80.896-58.595556a254.293333 254.293333 0 0 0 7.168-62.350222V377.059556H216.177778v30.378666h55.296v212.081778a226.304 226.304 0 0 1-44.942222 141.312l10.467555 19.911111c34.133333-3.072 61.212444-22.755556 81.92-58.140444q30.037333 48.355556 97.28 48.241777h151.210667a169.870222 169.870222 0 0 1-38.684445-30.378666z" fill="#252935" p-id="2347"></path><path d="M664.803556 661.504m-171.463112 0a171.463111 171.463111 0 1 0 342.926223 0 171.463111 171.463111 0 1 0-342.926223 0Z" fill="#E7F0FF" p-id="2348"></path><path d="M664.234667 529.863111a131.640889 131.640889 0 1 0 131.527111 131.640889 131.640889 131.640889 0 0 0-131.527111-131.640889zM721.806222 648.533333l-11.377778 26.396445h-30.492444v11.377778h39.822222l-9.898666 26.510222h-29.923556v23.893333l-30.037333 11.377778v-35.612445h-38.343111v-26.510222h38.343111v-11.377778h-38.343111V648.533333h34.133333l-51.427556-72.135111h34.133334L666.168889 625.777778l34.133333-50.517334h34.133334L684.487111 648.533333z" fill="#0066F3" p-id="2349"></path></svg>