<?xml version="1.0" standalone="no"?><!DOCTYPE svg PUBLIC "-//W3C//DTD SVG 1.1//EN" "http://www.w3.org/Graphics/SVG/1.1/DTD/svg11.dtd"><svg t="1600930186601" class="icon" viewBox="0 0 1024 1024" version="1.1" xmlns="http://www.w3.org/2000/svg" p-id="2863" xmlns:xlink="http://www.w3.org/1999/xlink" width="200" height="200"><defs><style type="text/css"></style></defs><path d="M796.16 32H234.56a200.96 200.96 0 0 0-200.64 201.6v409.28a200.96 200.96 0 0 0 200.64 200.64h60.16v-96H247.04A120.64 120.64 0 0 1 128 627.84V246.72A120.32 120.32 0 0 1 247.04 128h538.56a120.32 120.32 0 0 1 120.32 120v380.16a120.32 120.32 0 0 1-120.32 120h-187.52l-285.44 166.72 46.4 82.88 260.8-154.24h176a200.64 200.64 0 0 0 200.64-200.32V233.6A200.64 200.64 0 0 0 796.16 32z m0 0" fill="#696969" p-id="2864"></path><path d="M292.48 795.84m-47.68 0a47.68 47.68 0 1 0 95.36 0 47.68 47.68 0 1 0-95.36 0Z" fill="#696969" p-id="2865"></path><path d="M338.24 954.88m-47.68 0a47.68 47.68 0 1 0 95.36 0 47.68 47.68 0 1 0-95.36 0Z" fill="#696969" p-id="2866"></path><path d="M240.64 437.44a60.48 60.48 0 1 0 60.16-60.16 60.16 60.16 0 0 0-60.16 60.16z m214.4 0a60.16 60.16 0 1 0 60.16-60.16 60.16 60.16 0 0 0-60.16 60.16z m214.4 0a60.16 60.16 0 1 0 60.16-60.16 60.16 60.16 0 0 0-60.16 60.16z m0 0" fill="#696969" p-id="2867"></path></svg>