<?xml version="1.0" standalone="no"?><!DOCTYPE svg PUBLIC "-//W3C//DTD SVG 1.1//EN" "http://www.w3.org/Graphics/SVG/1.1/DTD/svg11.dtd"><svg t="1602760513514" class="icon" viewBox="0 0 1024 1024" version="1.1" xmlns="http://www.w3.org/2000/svg" p-id="2229" xmlns:xlink="http://www.w3.org/1999/xlink" width="200" height="200"><defs><style type="text/css"></style></defs><path d="M512 0a512 512 0 1 0 512 512A512 512 0 0 0 512 0z m320 453.44a134.08 134.08 0 0 1-118.08 104.96s93.76 70.72 51.2 174.4-124.48 160-284.8 96l-18.24-7.68-51.84 128-78.08-32L384 787.84 335.04 768l-52.16 128-77.76-32L256 736l-149.76-64 38.08-79.36 55.04 22.4a32 32 0 0 0 46.72-23.04l139.52-339.2c7.36-17.92 1.92-32-25.6-42.24l-59.52-23.36 32-81.28 155.52 64 50.24-122.24 77.76 32-48.64 121.92 50.24 22.4 50.24-122.24 77.76 32L695.36 256C768 295.36 857.28 368.32 832 453.44z" p-id="2230" fill="#ff7800"></path><path d="M537.92 559.68l-100.8-41.28-66.88 162.56 87.04 35.84c82.56 33.92 138.56 14.72 162.56-44.16s-59.2-103.68-81.92-112.96zM586.88 310.4L532.16 288l-61.44 149.12L571.2 480a83.52 83.52 0 0 0 102.4-53.44c25.92-64.64-49.92-101.12-86.72-116.16z" p-id="2231" fill="#ff7800"></path></svg>