<?xml version="1.0" standalone="no"?><!DOCTYPE svg PUBLIC "-//W3C//DTD SVG 1.1//EN" "http://www.w3.org/Graphics/SVG/1.1/DTD/svg11.dtd"><svg t="1602835906655" class="icon" viewBox="0 0 1024 1024" version="1.1" xmlns="http://www.w3.org/2000/svg" p-id="3013" xmlns:xlink="http://www.w3.org/1999/xlink" width="200" height="200"><defs><style type="text/css"></style></defs><path d="M512 512m-512 0a512 512 0 1 0 1024 0 512 512 0 1 0-1024 0Z" fill="#FFFFFF" p-id="3014"></path><path d="M512 512m-253.838222 0a253.838222 253.838222 0 1 0 507.676444 0 253.838222 253.838222 0 1 0-507.676444 0Z" fill="#E7F0FF" p-id="3015"></path><path d="M672.426667 188.416L331.776 530.090667H473.315556L331.776 835.584l360.448-362.951111H539.420444L672.426667 188.416z" fill="#0066F3" p-id="3016"></path><path d="M248.945778 512a261.688889 261.688889 0 0 1 304.696889-259.413333L591.644444 198.769778A322.56 322.56 0 0 0 188.416 512a323.242667 323.242667 0 0 0 139.491556 266.012444l28.558222-54.272A262.257778 262.257778 0 0 1 248.945778 512zM682.666667 237.681778l-13.425778 63.829333a262.485333 262.485333 0 0 1-223.004445 464.896L398.222222 814.535111a323.242667 323.242667 0 0 0 284.444445-576.853333z" fill="#252935" p-id="3017"></path></svg>