<?xml version="1.0" standalone="no"?><!DOCTYPE svg PUBLIC "-//W3C//DTD SVG 1.1//EN" "http://www.w3.org/Graphics/SVG/1.1/DTD/svg11.dtd"><svg t="1600930048574" class="icon" viewBox="0 0 1024 1024" version="1.1" xmlns="http://www.w3.org/2000/svg" p-id="2324" xmlns:xlink="http://www.w3.org/1999/xlink" width="200" height="200"><defs><style type="text/css"></style></defs><path d="M511.261511 511.261511m-511.261511 0a511.261511 511.261511 0 1 0 1022.523022 0 511.261511 511.261511 0 1 0-1022.523022 0Z" fill="#FFFFFF" p-id="2325"></path><path d="M439.344059 434.799512m-251.881505 0a251.881504 251.881504 0 1 0 503.763009 0 251.881504 251.881504 0 1 0-503.763009 0Z" fill="#E7F0FF" p-id="2326"></path><path d="M361.859536 333.910574h120.203262v40.332852H361.859536zM361.859536 454.113836h240.747365v40.332852H361.859536zM361.859536 573.294575h120.203262v41.241761H361.859536z" fill="#0066F3" p-id="2327"></path><path d="M636.236547 206.549651H286.874515a46.695218 46.695218 0 0 0-44.536559 48.513036v503.422168a46.581604 46.581604 0 0 0 44.536559 48.513037H749.850216a46.695218 46.695218 0 0 0 44.536559-48.513037V365.040719z m95.435482 484.335071A46.695218 46.695218 0 0 1 687.135471 739.965827H348.907578a46.695218 46.695218 0 0 1-44.536558-48.513037V322.66282A46.695218 46.695218 0 0 1 348.907578 274.149784h272.672806v99.980028h110.205259z" fill="#252935" p-id="2328"></path><path d="M674.297126 678.841673m-160.763341 0a160.763342 160.763342 0 1 0 321.526683 0 160.763342 160.763342 0 1 0-321.526683 0Z" fill="#E7F0FF" p-id="2329"></path><path d="M673.729058 555.457228a123.384445 123.384445 0 1 0 123.384445 123.384445A123.498058 123.498058 0 0 0 673.729058 555.457228z m53.966493 110.659714l-11.361367 24.881394h-27.948963v11.361367h37.378897l-9.202707 24.881393h-28.17619v22.722734l-28.062576 10.452458v-33.74326H624.87518v-24.881394h36.015533v-11.361367H624.87518V666.116942h31.925441l-48.172195-68.168201h31.698213l35.788306 47.036059 31.811827-47.3769h31.925441l-46.581604 68.168201z" fill="#0066F3" p-id="2330"></path></svg>