<?xml version="1.0" standalone="no"?><!DOCTYPE svg PUBLIC "-//W3C//DTD SVG 1.1//EN" "http://www.w3.org/Graphics/SVG/1.1/DTD/svg11.dtd"><svg t="1600930197500" class="icon" viewBox="0 0 1024 1024" version="1.1" xmlns="http://www.w3.org/2000/svg" p-id="2998" xmlns:xlink="http://www.w3.org/1999/xlink" width="200" height="200"><defs><style type="text/css"></style></defs><path d="M30.08 465.28m46.4 0l871.04 0q46.4 0 46.4 46.4l0 0q0 46.4-46.4 46.4l-871.04 0q-46.4 0-46.4-46.4l0 0q0-46.4 46.4-46.4Z" fill="#252935" p-id="2999"></path><path d="M73.92 549.44l110.4 258.24a96 96 0 0 0 88 54.08h99.2v-81.92H273.6s-101.76-221.76-103.04-221.76zM935.04 549.44l-110.72 258.24A96 96 0 0 1 736 861.76h-99.2v-81.92H736s101.76-221.76 103.04-221.76z" fill="#252935" p-id="3000"></path><path d="M501.44 648.64a172.48 172.48 0 1 0 172.48 172.48 172.48 172.48 0 0 0-172.48-172.48z m0 265.92a93.44 93.44 0 1 1 93.44-93.44 93.44 93.44 0 0 1-93.44 93.44zM608 243.52c-24-32-90.56-113.6-128-152.32a83.2 83.2 0 0 0-119.04-6.08l-285.12 303.68s-7.68 13.76 8.64 41.28a41.92 41.92 0 0 0 47.68 17.92l288-297.28L576 324.16z" fill="#252935" p-id="3001"></path><path d="M669.44 431.04c9.28-23.68 18.24-46.4 27.2-69.76 32 12.48 64 23.04 94.08 37.12a38.72 38.72 0 0 1 19.84 32h78.4a160 160 0 0 0-12.48-35.2 112.32 112.32 0 0 0 48-103.68 106.56 106.56 0 0 0-72.64-86.72c8.32-20.8 14.72-40.32 23.36-58.88s6.08-24.32-11.52-32-23.36 0-28.16 14.4c-6.72 20.16-15.36 39.36-23.36 59.84L768 172.8c8.32-21.44 15.36-42.24 24.32-61.76s2.24-22.08-12.16-27.52-22.72-4.48-28.16 11.52c-7.04 21.44-16 41.92-24.32 64l-39.04-15.04-36.8-16c-9.92-3.84-17.92-3.2-21.44 8.32s-14.08 20.16 0 32a51.52 51.52 0 0 1 19.52 73.6c-18.24 47.68-37.12 96-55.68 142.72-11.2 28.8-15.36 40.32-18.88 47.04z m72.64-186.88c0-3.2 10.56-5.44 15.04-4.16a373.12 373.12 0 0 1 48.64 18.88 46.72 46.72 0 1 1-35.84 85.76l-58.88-23.04c10.88-27.52 20.16-52.8 31.04-77.44z" fill="#0066F3" p-id="3002"></path></svg>