<?xml version="1.0" standalone="no"?><!DOCTYPE svg PUBLIC "-//W3C//DTD SVG 1.1//EN" "http://www.w3.org/Graphics/SVG/1.1/DTD/svg11.dtd"><svg t="1602835619053" class="icon" viewBox="0 0 1024 1024" version="1.1" xmlns="http://www.w3.org/2000/svg" p-id="2879" xmlns:xlink="http://www.w3.org/1999/xlink" width="200" height="200"><defs><style type="text/css"></style></defs><path d="M512 512m-512 0a512 512 0 1 0 1024 0 512 512 0 1 0-1024 0Z" fill="#FFFFFF" p-id="2880"></path><path d="M439.523556 457.045333m-248.718223 0a248.718222 248.718222 0 1 0 497.436445 0 248.718222 248.718222 0 1 0-497.436445 0Z" fill="#E7F0FF" p-id="2881"></path><path d="M180.906667 468.878222m16.497777 0l629.191112 0q16.497778 0 16.497777 16.497778l0 30.833778q0 16.497778-16.497777 16.497778l-629.191112 0q-16.497778 0-16.497777-16.497778l0-30.833778q0-16.497778 16.497777-16.497778Z" fill="#252935" p-id="2882"></path><path d="M211.057778 526.677333l75.889778 177.607111s12.970667 34.133333 60.416 37.091556h68.266666v-56.206222H348.16s-69.859556-152.462222-70.656-152.462222zM802.588444 526.677333L726.698667 704.284444a65.763556 65.763556 0 0 1-60.302223 37.091556h-68.266666v-56.206222h67.242666s69.859556-152.462222 70.656-152.462222z" fill="#252935" p-id="2883"></path><path d="M504.718222 594.830222A118.670222 118.670222 0 1 0 623.274667 713.386667a118.556444 118.556444 0 0 0-118.556445-118.556445z m0 182.840889A64.284444 64.284444 0 1 1 568.888889 713.386667a64.284444 64.284444 0 0 1-64.170667 64.284444zM578.332444 316.529778c-16.384-20.707556-62.122667-77.596444-87.608888-104.561778a56.888889 56.888889 0 0 0-81.92-4.323556L212.309333 416.312889s-5.233778 9.443556 6.030223 28.444444a28.558222 28.558222 0 0 0 32.768 12.060445l198.314666-204.8 105.927111 120.035555z" fill="#252935" p-id="2884"></path><path d="M620.088889 445.44c6.485333-16.384 12.515556-31.971556 18.887111-48.014222 21.959111 8.533333 43.804444 15.928889 64.398222 25.6a26.510222 26.510222 0 0 1 13.880889 22.755555h53.703111A102.4 102.4 0 0 0 762.311111 420.977778a77.027556 77.027556 0 0 0 32.881778-71.111111c-3.185778-30.264889-22.755556-47.445333-49.720889-59.619556 5.575111-14.336 10.126222-27.761778 16.042667-40.504889 4.778667-10.581333 4.096-16.725333-7.964445-21.276444s-15.928889 0-19.456 9.898666c-4.551111 13.767111-10.353778 27.192889-15.815111 41.073778l-29.696-11.377778c5.802667-14.791111 10.695111-29.013333 16.839111-42.666666 4.892444-10.467556 1.479111-15.018667-8.419555-18.773334s-15.587556-3.072-19.228445 7.964445c-4.892444 14.563556-11.377778 28.672-16.839111 43.576889l-26.851555-10.467556c-8.647111-3.413333-17.408-6.712889-26.055112-10.24-6.826667-2.730667-12.515556-2.275556-14.791111 5.575111s-9.784889 13.880889 0 21.390223c20.138667 16.042667 22.755556 26.510222 13.539556 50.631111Q587.548444 364.088889 568.888889 413.013333c-7.850667 19.911111-10.581333 27.761778-12.970667 32.426667z m49.948444-128.455111c0.910222-2.161778 7.395556-3.868444 10.353778-2.844445a314.026667 314.026667 0 0 1 34.133333 12.856889 32.312889 32.312889 0 0 1 19.000889 43.576889 31.971556 31.971556 0 0 1-43.690666 15.36L648.533333 370.232889c7.623111-18.887111 14.108444-36.295111 21.504-53.248z" fill="#0066F3" p-id="2885"></path></svg>