<?xml version="1.0" standalone="no"?><!DOCTYPE svg PUBLIC "-//W3C//DTD SVG 1.1//EN" "http://www.w3.org/Graphics/SVG/1.1/DTD/svg11.dtd"><svg t="1603177016289" class="icon" viewBox="0 0 1024 1024" version="1.1" xmlns="http://www.w3.org/2000/svg" p-id="2447" xmlns:xlink="http://www.w3.org/1999/xlink" width="200" height="200"><defs><style type="text/css"></style></defs><path d="M512 512m-512 0a512 512 0 1 0 1024 0 512 512 0 1 0-1024 0Z" fill="#FFFFFF" p-id="2448"></path><path d="M512 512m-253.838222 0a253.838222 253.838222 0 1 0 507.676444 0 253.838222 253.838222 0 1 0-507.676444 0Z" fill="#E7F0FF" p-id="2449"></path><path d="M512 187.733333A324.266667 324.266667 0 1 0 836.266667 512 324.266667 324.266667 0 0 0 512 187.733333z m166.343111 539.420445l-68.266667-98.986667a153.144889 153.144889 0 0 1-42.780444 25.941333q25.6 54.044444 51.2 108.430223a275.797333 275.797333 0 0 1-210.261333 1.024q25.486222-53.930667 50.858666-107.406223a154.396444 154.396444 0 0 1-44.032-24.462222L347.477333 728.177778a271.815111 271.815111 0 0 1-105.472-180.906667l117.304889-9.671111a157.240889 157.240889 0 0 1-2.275555-25.486222 159.288889 159.288889 0 0 1 2.161777-24.689778L241.891556 477.866667a266.695111 266.695111 0 0 1 24.576-83.968 270.563556 270.563556 0 0 1 79.644444-97.735111l67.356444 97.28a152.576 152.576 0 0 1 43.576889-24.689778L406.414222 261.688889c46.876444-27.761778 157.127111-28.330667 209.123556-0.796445q-25.6 54.272-51.427556 108.544a156.672 156.672 0 0 1 43.235556 24.803556l68.266666-99.214222a274.204444 274.204444 0 0 1 105.585778 180.679111l-121.059555 10.012444a160.312889 160.312889 0 0 1 3.072 26.282667 152.462222 152.462222 0 0 1-1.934223 22.755556l120.832 9.898666a273.066667 273.066667 0 0 1-103.765333 182.499556z" fill="#252935" p-id="2450"></path><path d="M512 389.006222A122.993778 122.993778 0 1 0 634.993778 512 122.993778 122.993778 0 0 0 512 389.006222z m53.816889 110.364445l-11.377778 24.689777h-27.761778V534.755556h37.205334l-9.216 24.803555h-27.989334v22.755556l-27.989333 10.467555v-33.109333h-35.84V534.755556h35.84v-10.808889h-35.84v-24.576h31.744L446.577778 432.355556H477.866667l35.726222 46.876444L546.133333 431.559111h31.857778l-46.535111 68.266667z" fill="#0066F3" p-id="2451"></path></svg>