<?xml version="1.0" standalone="no"?><!DOCTYPE svg PUBLIC "-//W3C//DTD SVG 1.1//EN" "http://www.w3.org/Graphics/SVG/1.1/DTD/svg11.dtd"><svg t="1600930071619" class="icon" viewBox="0 0 1024 1024" version="1.1" xmlns="http://www.w3.org/2000/svg" p-id="2596" xmlns:xlink="http://www.w3.org/1999/xlink" width="200" height="200"><defs><style type="text/css"></style></defs><path d="M610.24 207.36h-91.2l17.6-54.4h-105.92l-17.6 54.4h-55.36v231.36h252.48z m-62.4 190.4h-118.08v-54.4h118.08z m0-96h-118.08V248.32h118.08zM297.6 261.76l-28.48-108.8H155.52l28.8 108.8H297.6zM683.2 372.16v96a284.48 284.48 0 0 1 50.24-4.8h19.52V315.84H710.4a245.76 245.76 0 0 0 23.04-54.08h69.76v163.52a129.92 129.92 0 0 1-10.24 45.76 241.28 241.28 0 0 1 80.96 34.56 578.24 578.24 0 0 0 5.76-80.32V261.76h13.44V220.8h-151.04a483.2 483.2 0 0 0 8.96-67.84h-88.32a821.44 821.44 0 0 1-40.64 217.28l14.08 27.52a354.56 354.56 0 0 0 47.04-25.6zM525.44 576h-82.88v-48h122.24a243.84 243.84 0 0 1 64-40.96h-92.16v-34.88h-105.92v33.92h-92.8v40.96h32v74.56a248.64 248.64 0 0 1-40 149.76l13.44 27.52c59.52-23.68 98.24-100.16 97.92-163.84h64a180.8 180.8 0 0 1 20.16-39.04zM507.2 727.68c0-3.52-2.56-6.72-3.2-9.92a79.04 79.04 0 0 1-26.88 33.6l13.12 27.52a138.24 138.24 0 0 0 28.16-3.52 219.84 219.84 0 0 1-11.2-47.68z" fill="#252935" p-id="2597"></path><path d="M531.52 805.76h-131.2a100.8 100.8 0 0 1-108.8-79.04 345.6 345.6 0 0 0 9.6-84.16V315.84H130.88v40.96h74.56v285.76a306.56 306.56 0 0 1-60.48 192l13.76 26.88a142.4 142.4 0 0 0 110.72-78.4 142.72 142.72 0 0 0 130.88 64h158.08a225.92 225.92 0 0 1-26.88-41.28z" fill="#252935" p-id="2598"></path><path d="M736 521.92a177.28 177.28 0 1 0 177.28 177.28A177.28 177.28 0 0 0 736 521.92z m77.76 160l-16.96 34.88h-40.32v15.36h53.76L796.8 768h-40.32v32l-40.32 15.36V768h-51.84v-35.84h51.84v-15.36h-51.84v-35.84h46.08l-69.44-96h45.76l51.2 67.52 45.76-68.16h46.08l-67.2 97.6z" fill="#0066F3" p-id="2599"></path></svg>