<svg id="图层_1" data-name="图层 1" xmlns="http://www.w3.org/2000/svg" xmlns:xlink="http://www.w3.org/1999/xlink" viewBox="0 0 90 90"><defs><style>.cls-1{fill:none;}.cls-2{fill:#fff;}.cls-3{fill:#e7f0ff;}.cls-4{clip-path:url(#clip-path);}.cls-5{fill:#252935;}.cls-6{clip-path:url(#clip-path-2);}.cls-7{fill:#0066f3;}</style><clipPath id="clip-path"><rect class="cls-1" x="18.44" y="18.41" width="50.85" height="50.9"/></clipPath><clipPath id="clip-path-2"><rect class="cls-1" x="16.57" y="16.54" width="54.58" height="54.64"/></clipPath></defs><title>图标</title><circle class="cls-2" cx="45.05" cy="45.01" r="45"/><circle class="cls-3" cx="41.12" cy="41.65" r="19.8"/><g class="cls-4"><path class="cls-5" d="M62.74,69.25H24.93a6.5,6.5,0,0,1-6.5-6.5V24.94a6.5,6.5,0,0,1,6.5-6.49H62.74a6.5,6.5,0,0,1,6.5,6.49V62.75a6.5,6.5,0,0,1-6.5,6.5ZM24.93,22a3,3,0,0,0-2.95,3V62.75a3,3,0,0,0,2.95,3H62.74a3,3,0,0,0,3-3V24.94a3,3,0,0,0-3-3Zm0,0"/></g><path class="cls-5" d="M48.51,33.15H60.57a2,2,0,1,1,0,4H48.51a2,2,0,1,1,0-4Zm0,18.73H60.59a1.76,1.76,0,0,1,2,2v0a1.76,1.76,0,0,1-2,2H48.51a1.77,1.77,0,0,1-2-2v0a1.77,1.77,0,0,1,2-2Zm3.57-3.31a2.42,2.42,0,1,0,1.21-2.08,2.4,2.4,0,0,0-1.21,2.08Zm0,10.71a2.42,2.42,0,1,0,1.21-2.09,2.41,2.41,0,0,0-1.21,2.09Zm-25-26.13h12a2,2,0,0,1,0,4.07h-12a2,2,0,0,1-2-2.07,2,2,0,0,1,2-2Zm0,0"/><path class="cls-5" d="M31.11,41.17v-12a2,2,0,0,1,2-2,2,2,0,0,1,2,2V41.17a2,2,0,0,1-2,2,2,2,0,0,1-2-2ZM27.56,56.51,36.1,48a2,2,0,0,1,2.84,0,2,2,0,0,1,0,2.84l-8.56,8.54A2,2,0,0,1,29,60a2,2,0,0,1-1.42-.59h0a2.05,2.05,0,0,1,0-2.87Zm0,0"/><path class="cls-5" d="M36.07,59.38l-8.51-8.52a2.05,2.05,0,0,1,0-2.84,2,2,0,0,1,2.85,0l8.51,8.49a2.05,2.05,0,0,1,0,2.84A2,2,0,0,1,37.5,60a2.06,2.06,0,0,1-1.43-.58Zm0,0"/><g class="cls-6"><path class="cls-5" d="M64.13,71.12H23.54a7,7,0,0,1-7-7V23.55a7,7,0,0,1,7-7H64.13a7,7,0,0,1,7,7V64.14a7,7,0,0,1-7,7ZM23.54,20.38a3.17,3.17,0,0,0-3.17,3.17V64.14a3.17,3.17,0,0,0,3.17,3.17H64.13a3.17,3.17,0,0,0,3.17-3.17V23.55a3.17,3.17,0,0,0-3.17-3.17Zm0,0"/></g><circle class="cls-3" cx="58.77" cy="58.73" r="14.75"/><path class="cls-7" d="M58.71,47.41A11.32,11.32,0,1,0,70,58.73,11.32,11.32,0,0,0,58.71,47.41Zm5,10.15-1,2.28H60.07v1h3.42l-.85,2.27H60.07v2.06l-2.59,1v-3h-3.3V60.84h3.3v-1h-3.3V57.56h2.93l-4.42-6.2h2.92l3.28,4.32,2.91-4.35h2.94l-4.28,6.23Z"/></svg>