<?xml version="1.0" encoding="utf-8"?>
<!-- Generator: Adobe Illustrator 23.0.0, SVG Export Plug-In . SVG Version: 6.00 Build 0)  -->
<svg version="1.1" id="图层_1" xmlns="http://www.w3.org/2000/svg" xmlns:xlink="http://www.w3.org/1999/xlink" x="0px" y="0px"
	 viewBox="0 0 686 314" style="enable-background:new 0 0 686 314;" xml:space="preserve">
<style type="text/css">
	.st0{fill:#4163EF;}
	.st1{fill:url(#SVGID_1_);}
	.st2{fill:url(#SVGID_2_);}
</style>
<g>
	<path class="st0" d="M666,314H20c-11.05,0-20-8.95-20-20V20C0,8.95,8.95,0,20,0h646c11.05,0,20,8.95,20,20v274
		C686,305.05,677.05,314,666,314z"/>
	<linearGradient id="SVGID_1_" gradientUnits="userSpaceOnUse" x1="68.6503" y1="41.9994" x2="257.442" y2="219.52">
		<stop  offset="0" style="stop-color:#5477F3"/>
		<stop  offset="1" style="stop-color:#4163EF"/>
	</linearGradient>
	<path class="st1" d="M504.87,314c5.3-20.28,8.13-41.56,8.13-63.5C513,112.15,400.85,0,262.5,0S12,112.15,12,250.5
		c0,21.94,2.83,43.22,8.13,63.5H504.87z"/>
	<linearGradient id="SVGID_2_" gradientUnits="userSpaceOnUse" x1="347.8952" y1="96.9569" x2="488.5659" y2="229.2293">
		<stop  offset="0" style="stop-color:#5477F3"/>
		<stop  offset="1" style="stop-color:#4163EF"/>
	</linearGradient>
	<path class="st2" d="M687,284.66V126.48C642.86,87.6,584.94,64,521.5,64c-138.18,0-250.22,111.88-250.49,250h386.66L687,284.66z"/>
</g>
</svg>
